<svg width="1653" height="993" xmlns="http://www.w3.org/2000/svg" xmlns:xlink="http://www.w3.org/1999/xlink" overflow="hidden"><defs><clipPath id="clip0"><rect x="1825" y="161" width="1653" height="993"/></clipPath><clipPath id="clip1"><rect x="1826" y="161" width="1650" height="990"/></clipPath><clipPath id="clip2"><rect x="1826" y="161" width="1650" height="990"/></clipPath><clipPath id="clip3"><rect x="1826" y="161" width="1650" height="990"/></clipPath><clipPath id="clip4"><rect x="1826" y="161" width="1650" height="990"/></clipPath><clipPath id="clip5"><rect x="1969" y="331" width="1439" height="598"/></clipPath><clipPath id="clip6"><rect x="1826" y="161" width="1650" height="990"/></clipPath><clipPath id="clip7"><rect x="1969" y="331" width="1439" height="598"/></clipPath><clipPath id="clip8"><rect x="1826" y="161" width="1650" height="990"/></clipPath><clipPath id="clip9"><rect x="1969" y="331" width="1439" height="598"/></clipPath><clipPath id="clip10"><rect x="1826" y="161" width="1650" height="990"/></clipPath><clipPath id="clip11"><rect x="1969" y="331" width="1439" height="598"/></clipPath><clipPath id="clip12"><rect x="1826" y="161" width="1650" height="990"/></clipPath><clipPath id="clip13"><rect x="1969" y="331" width="1439" height="598"/></clipPath><clipPath id="clip14"><rect x="1826" y="161" width="1650" height="990"/></clipPath><clipPath id="clip15"><rect x="1826" y="161" width="1650" height="990"/></clipPath><clipPath id="clip16"><rect x="1826" y="161" width="1650" height="990"/></clipPath><clipPath id="clip17"><rect x="1826" y="161" width="1650" height="990"/></clipPath><clipPath id="clip18"><rect x="1826" y="161" width="1650" height="990"/></clipPath><clipPath id="clip19"><rect x="1826" y="161" width="1650" height="990"/></clipPath><clipPath id="clip20"><rect x="1826" y="161" width="1650" height="990"/></clipPath><clipPath id="clip21"><rect x="1826" y="161" width="1650" height="990"/></clipPath><clipPath id="clip22"><rect x="1826" y="161" width="1650" height="990"/></clipPath><clipPath id="clip23"><rect x="1826" y="161" width="1650" height="990"/></clipPath><clipPath id="clip24"><rect x="1826" y="161" width="1650" height="990"/></clipPath><clipPath id="clip25"><rect x="1826" y="161" width="1650" height="990"/></clipPath><clipPath id="clip26"><rect x="1826" y="161" width="1650" height="990"/></clipPath><clipPath id="clip27"><rect x="1826" y="161" width="1650" height="990"/></clipPath><clipPath id="clip28"><rect x="1826" y="161" width="1650" height="990"/></clipPath><clipPath id="clip29"><rect x="1826" y="161" width="1650" height="990"/></clipPath><clipPath id="clip30"><rect x="1826" y="161" width="1650" height="990"/></clipPath><clipPath id="clip31"><rect x="1826" y="161" width="1650" height="990"/></clipPath><clipPath id="clip32"><rect x="1826" y="161" width="1650" height="990"/></clipPath><clipPath id="clip33"><rect x="1826" y="161" width="1650" height="990"/></clipPath><clipPath id="clip34"><rect x="1826" y="161" width="1650" height="990"/></clipPath><clipPath id="clip35"><rect x="1826" y="161" width="1650" height="990"/></clipPath><clipPath id="clip36"><rect x="1826" y="161" width="1650" height="990"/></clipPath><clipPath id="clip37"><rect x="1826" y="161" width="1650" height="990"/></clipPath><clipPath id="clip38"><rect x="1826" y="161" width="1650" height="990"/></clipPath><clipPath id="clip39"><rect x="1826" y="161" width="1650" height="990"/></clipPath><clipPath id="clip40"><rect x="1826" y="161" width="1650" height="990"/></clipPath><clipPath id="clip41"><rect x="1826" y="161" width="1650" height="990"/></clipPath><clipPath id="clip42"><rect x="1826" y="161" width="1650" height="990"/></clipPath><clipPath id="clip43"><rect x="1826" y="161" width="1650" height="990"/></clipPath><clipPath id="clip44"><rect x="1826" y="161" width="1650" height="990"/></clipPath><clipPath id="clip45"><rect x="1826" y="161" width="1650" height="990"/></clipPath><clipPath id="clip46"><rect x="1826" y="161" width="1650" height="990"/></clipPath><clipPath id="clip47"><rect x="1826" y="161" width="1650" height="990"/></clipPath><clipPath id="clip48"><rect x="1826" y="161" width="1650" height="990"/></clipPath></defs><g clip-path="url(#clip0)" transform="translate(-1825 -161)"><rect x="1826" y="162" width="1650" height="990" fill="#FFFFFF"/><g clip-path="url(#clip1)"><path d="M1969.5 925.5 3405.5 925.5M1969.5 859.528 3405.5 859.528M1969.5 793.526 3405.5 793.526M1969.5 727.524 3405.5 727.524M1969.5 661.522 3405.5 661.522M1969.5 595.52 3405.5 595.52M1969.5 529.518 3405.5 529.518M1969.5 463.515 3405.5 463.515M1969.5 331.5 3405.5 331.5" stroke="#D9D9D9" stroke-width="3.4375" stroke-linejoin="round" stroke-miterlimit="10" fill="none"/></g><g clip-path="url(#clip2)"><path d="M2174.57 331.5 2174.57 925.5M2379.58 331.5 2379.58 925.5M2584.58 331.5 2584.58 925.5M2789.59 331.5 2789.59 925.5M2994.6 331.5 2994.6 925.5M3199.61 331.5 3199.61 925.5M3405.5 331.5 3405.5 925.5" stroke="#D9D9D9" stroke-width="3.4375" stroke-linejoin="round" stroke-miterlimit="10" fill="none"/></g><g clip-path="url(#clip3)"><path d="M0 0 0.000360892 594" stroke="#BFBFBF" stroke-width="3.4375" stroke-linejoin="round" stroke-miterlimit="10" fill="none" fill-rule="evenodd" transform="matrix(1 0 0 -1 1969.5 925.5)"/></g><g clip-path="url(#clip4)"><path d="M1969.5 397.5 3405.5 397.5" stroke="#BFBFBF" stroke-width="3.4375" stroke-linejoin="round" stroke-miterlimit="10" fill="none" fill-rule="evenodd"/></g><g clip-path="url(#clip5)"><path d="M1969.5 397.437C1996.86 554.299 2024.21 865.546 2051.57 868.023 2078.92 870.5 2106.28 489.408 2133.63 412.298 2147.4 373.5 2201.94 406.138 2215.7 405.363 2243.06 403.822 2270.41 403.657 2297.77 403.051 2325.12 402.446 2352.48 402.06 2379.83 401.731 2407.19 401.4 2434.54 401.29 2461.9 401.07 2489.26 400.85 2516.61 400.519 2543.97 400.41 2571.32 400.3 2598.68 400.52 2626.03 400.41 2653.39 400.3 2680.74 399.914 2708.1 399.749 2735.46 399.584 2762.81 399.474 2790.17 399.419 2817.52 399.364 2844.88 399.419 2872.23 399.419 2899.59 399.419 2926.94 399.474 2954.3 399.419 2981.66 399.364 3009.01 399.143 3036.37 399.088 3063.72 399.033 3091.08 399.143 3118.43 399.088 3145.79 399.033 3173.14 398.868 3200.5 398.759" stroke="#4472C4" stroke-width="6.875" stroke-linecap="round" stroke-linejoin="round" stroke-miterlimit="10" fill="none"/></g><g clip-path="url(#clip6)"><path d="M1980.96 397.062C1980.96 403.137 1976.03 408.061 1969.96 408.061 1963.88 408.061 1958.96 403.137 1958.96 397.062 1958.96 390.987 1963.88 386.062 1969.96 386.062 1976.03 386.062 1980.96 390.987 1980.96 397.062Z" stroke="#4472C4" stroke-width="3.4375" stroke-linejoin="round" stroke-miterlimit="10" fill="#4472C4"/><path d="M2062.96 868.062C2062.96 874.137 2058.03 879.062 2051.96 879.062 2045.88 879.062 2040.96 874.137 2040.96 868.062 2040.96 861.987 2045.88 857.062 2051.96 857.062 2058.03 857.062 2062.96 861.987 2062.96 868.062Z" stroke="#4472C4" stroke-width="3.4375" stroke-linejoin="round" stroke-miterlimit="10" fill="#4472C4"/><path d="M2144.96 412.062C2144.96 418.137 2140.03 423.062 2133.96 423.062 2127.88 423.062 2122.96 418.137 2122.96 412.062 2122.96 405.987 2127.88 401.062 2133.96 401.062 2140.03 401.062 2144.96 405.987 2144.96 412.062Z" stroke="#4472C4" stroke-width="3.4375" stroke-linejoin="round" stroke-miterlimit="10" fill="#4472C4"/><path d="M2226.96 405.062C2226.96 411.137 2222.03 416.062 2215.96 416.062 2209.88 416.062 2204.96 411.137 2204.96 405.062 2204.96 398.987 2209.88 394.062 2215.96 394.062 2222.03 394.062 2226.96 398.987 2226.96 405.062Z" stroke="#4472C4" stroke-width="3.4375" stroke-linejoin="round" stroke-miterlimit="10" fill="#4472C4"/><path d="M2308.96 403.062C2308.96 409.137 2304.03 414.062 2297.96 414.062 2291.88 414.062 2286.96 409.137 2286.96 403.062 2286.96 396.987 2291.88 392.062 2297.96 392.062 2304.03 392.062 2308.96 396.987 2308.96 403.062Z" stroke="#4472C4" stroke-width="3.4375" stroke-linejoin="round" stroke-miterlimit="10" fill="#4472C4"/><path d="M2390.96 401.062C2390.96 407.137 2386.03 412.062 2379.96 412.062 2373.88 412.062 2368.96 407.137 2368.96 401.062 2368.96 394.987 2373.88 390.062 2379.96 390.062 2386.03 390.062 2390.96 394.987 2390.96 401.062Z" stroke="#4472C4" stroke-width="3.4375" stroke-linejoin="round" stroke-miterlimit="10" fill="#4472C4"/><path d="M2472.96 401.062C2472.96 407.137 2468.03 412.062 2461.96 412.062 2455.88 412.062 2450.96 407.137 2450.96 401.062 2450.96 394.987 2455.88 390.062 2461.96 390.062 2468.03 390.062 2472.96 394.987 2472.96 401.062Z" stroke="#4472C4" stroke-width="3.4375" stroke-linejoin="round" stroke-miterlimit="10" fill="#4472C4"/><path d="M2554.96 400.062C2554.96 406.137 2550.03 411.061 2543.96 411.061 2537.88 411.061 2532.96 406.137 2532.96 400.062 2532.96 393.987 2537.88 389.062 2543.96 389.062 2550.03 389.062 2554.96 393.987 2554.96 400.062Z" stroke="#4472C4" stroke-width="3.4375" stroke-linejoin="round" stroke-miterlimit="10" fill="#4472C4"/><path d="M2636.96 400.062C2636.96 406.137 2632.03 411.061 2625.96 411.061 2619.88 411.061 2614.96 406.137 2614.96 400.062 2614.96 393.987 2619.88 389.062 2625.96 389.062 2632.03 389.062 2636.96 393.987 2636.96 400.062Z" stroke="#4472C4" stroke-width="3.4375" stroke-linejoin="round" stroke-miterlimit="10" fill="#4472C4"/><path d="M2718.96 399.062C2718.96 405.137 2714.03 410.061 2707.96 410.061 2701.88 410.061 2696.96 405.137 2696.96 399.062 2696.96 392.987 2701.88 388.062 2707.96 388.062 2714.03 388.062 2718.96 392.987 2718.96 399.062Z" stroke="#4472C4" stroke-width="3.4375" stroke-linejoin="round" stroke-miterlimit="10" fill="#4472C4"/><path d="M2801.96 399.062C2801.96 405.137 2797.03 410.061 2790.96 410.061 2784.88 410.061 2779.96 405.137 2779.96 399.062 2779.96 392.987 2784.88 388.062 2790.96 388.062 2797.03 388.062 2801.96 392.987 2801.96 399.062Z" stroke="#4472C4" stroke-width="3.4375" stroke-linejoin="round" stroke-miterlimit="10" fill="#4472C4"/><path d="M2883.96 399.062C2883.96 405.137 2879.03 410.061 2872.96 410.061 2866.88 410.061 2861.96 405.137 2861.96 399.062 2861.96 392.987 2866.88 388.062 2872.96 388.062 2879.03 388.062 2883.96 392.987 2883.96 399.062Z" stroke="#4472C4" stroke-width="3.4375" stroke-linejoin="round" stroke-miterlimit="10" fill="#4472C4"/><path d="M2965.96 399.062C2965.96 405.137 2961.03 410.061 2954.96 410.061 2948.88 410.061 2943.96 405.137 2943.96 399.062 2943.96 392.987 2948.88 388.062 2954.96 388.062 2961.03 388.062 2965.96 392.987 2965.96 399.062Z" stroke="#4472C4" stroke-width="3.4375" stroke-linejoin="round" stroke-miterlimit="10" fill="#4472C4"/><path d="M3047.96 399.062C3047.96 405.137 3043.03 410.061 3036.96 410.061 3030.88 410.061 3025.96 405.137 3025.96 399.062 3025.96 392.987 3030.88 388.062 3036.96 388.062 3043.03 388.062 3047.96 392.987 3047.96 399.062Z" stroke="#4472C4" stroke-width="3.4375" stroke-linejoin="round" stroke-miterlimit="10" fill="#4472C4"/><path d="M3129.96 399.062C3129.96 405.137 3125.03 410.061 3118.96 410.061 3112.88 410.061 3107.96 405.137 3107.96 399.062 3107.96 392.987 3112.88 388.062 3118.96 388.062 3125.03 388.062 3129.96 392.987 3129.96 399.062Z" stroke="#4472C4" stroke-width="3.4375" stroke-linejoin="round" stroke-miterlimit="10" fill="#4472C4"/><path d="M3211.96 398.062C3211.96 404.137 3207.03 409.061 3200.96 409.061 3194.88 409.061 3189.96 404.137 3189.96 398.062 3189.96 391.987 3194.88 387.062 3200.96 387.062 3207.03 387.062 3211.96 391.987 3211.96 398.062Z" stroke="#4472C4" stroke-width="3.4375" stroke-linejoin="round" stroke-miterlimit="10" fill="#4472C4"/></g><g clip-path="url(#clip7)"><path d="M1969.5 397.401C1996.86 548.279 2024.21 845.573 2051.57 850.036 2078.92 854.5 2106.28 498.52 2133.63 424.183 2148.24 384.5 2201.1 406.014 2215.7 404.014 2243.06 400.267 2270.41 402.25 2297.77 401.7 2325.12 401.148 2352.48 400.928 2379.83 400.708 2407.19 400.487 2434.54 400.542 2461.9 400.377 2489.26 400.212 2516.61 399.881 2543.97 399.716 2571.32 399.55 2598.68 399.495 2626.03 399.385 2653.39 399.275 2680.74 399.109 2708.1 399.054 2735.46 398.999 2762.81 399.109 2790.17 399.054 2817.52 398.999 2844.88 398.779 2872.23 398.724 2899.59 398.669 2926.94 398.779 2954.3 398.724 2981.66 398.669 3009.01 398.448 3036.37 398.393 3063.72 398.338 3091.08 398.393 3118.43 398.393 3145.79 398.393 3173.14 398.393 3200.5 398.393" stroke="#ED7D31" stroke-width="6.875" stroke-linecap="round" stroke-linejoin="round" stroke-miterlimit="10" fill="none"/></g><g clip-path="url(#clip8)"><path d="M1980.96 397.062C1980.96 403.137 1976.03 408.061 1969.96 408.061 1963.88 408.061 1958.96 403.137 1958.96 397.062 1958.96 390.987 1963.88 386.062 1969.96 386.062 1976.03 386.062 1980.96 390.987 1980.96 397.062Z" stroke="#ED7D31" stroke-width="3.4375" stroke-linejoin="round" stroke-miterlimit="10" fill="#ED7D31"/><path d="M2062.96 849.062C2062.96 855.137 2058.03 860.061 2051.96 860.061 2045.88 860.061 2040.96 855.137 2040.96 849.062 2040.96 842.987 2045.88 838.062 2051.96 838.062 2058.03 838.062 2062.96 842.987 2062.96 849.062Z" stroke="#ED7D31" stroke-width="3.4375" stroke-linejoin="round" stroke-miterlimit="10" fill="#ED7D31"/><path d="M2144.96 424.062C2144.96 430.137 2140.03 435.062 2133.96 435.062 2127.88 435.062 2122.96 430.137 2122.96 424.062 2122.96 417.987 2127.88 413.062 2133.96 413.062 2140.03 413.062 2144.96 417.987 2144.96 424.062Z" stroke="#ED7D31" stroke-width="3.4375" stroke-linejoin="round" stroke-miterlimit="10" fill="#ED7D31"/><path d="M2226.96 404.062C2226.96 410.137 2222.03 415.062 2215.96 415.062 2209.88 415.062 2204.96 410.137 2204.96 404.062 2204.96 397.987 2209.88 393.062 2215.96 393.062 2222.03 393.062 2226.96 397.987 2226.96 404.062Z" stroke="#ED7D31" stroke-width="3.4375" stroke-linejoin="round" stroke-miterlimit="10" fill="#ED7D31"/><path d="M2308.96 401.062C2308.96 407.137 2304.03 412.062 2297.96 412.062 2291.88 412.062 2286.96 407.137 2286.96 401.062 2286.96 394.987 2291.88 390.062 2297.96 390.062 2304.03 390.062 2308.96 394.987 2308.96 401.062Z" stroke="#ED7D31" stroke-width="3.4375" stroke-linejoin="round" stroke-miterlimit="10" fill="#ED7D31"/><path d="M2390.96 400.062C2390.96 406.137 2386.03 411.061 2379.96 411.061 2373.88 411.061 2368.96 406.137 2368.96 400.062 2368.96 393.987 2373.88 389.062 2379.96 389.062 2386.03 389.062 2390.96 393.987 2390.96 400.062Z" stroke="#ED7D31" stroke-width="3.4375" stroke-linejoin="round" stroke-miterlimit="10" fill="#ED7D31"/><path d="M2472.96 400.062C2472.96 406.137 2468.03 411.061 2461.96 411.061 2455.88 411.061 2450.96 406.137 2450.96 400.062 2450.96 393.987 2455.88 389.062 2461.96 389.062 2468.03 389.062 2472.96 393.987 2472.96 400.062Z" stroke="#ED7D31" stroke-width="3.4375" stroke-linejoin="round" stroke-miterlimit="10" fill="#ED7D31"/><path d="M2554.96 399.062C2554.96 405.137 2550.03 410.061 2543.96 410.061 2537.88 410.061 2532.96 405.137 2532.96 399.062 2532.96 392.987 2537.88 388.062 2543.96 388.062 2550.03 388.062 2554.96 392.987 2554.96 399.062Z" stroke="#ED7D31" stroke-width="3.4375" stroke-linejoin="round" stroke-miterlimit="10" fill="#ED7D31"/><path d="M2636.96 399.062C2636.96 405.137 2632.03 410.061 2625.96 410.061 2619.88 410.061 2614.96 405.137 2614.96 399.062 2614.96 392.987 2619.88 388.062 2625.96 388.062 2632.03 388.062 2636.96 392.987 2636.96 399.062Z" stroke="#ED7D31" stroke-width="3.4375" stroke-linejoin="round" stroke-miterlimit="10" fill="#ED7D31"/><path d="M2718.96 399.062C2718.96 405.137 2714.03 410.061 2707.96 410.061 2701.88 410.061 2696.96 405.137 2696.96 399.062 2696.96 392.987 2701.88 388.062 2707.96 388.062 2714.03 388.062 2718.96 392.987 2718.96 399.062Z" stroke="#ED7D31" stroke-width="3.4375" stroke-linejoin="round" stroke-miterlimit="10" fill="#ED7D31"/><path d="M2801.96 399.062C2801.96 405.137 2797.03 410.061 2790.96 410.061 2784.88 410.061 2779.96 405.137 2779.96 399.062 2779.96 392.987 2784.88 388.062 2790.96 388.062 2797.03 388.062 2801.96 392.987 2801.96 399.062Z" stroke="#ED7D31" stroke-width="3.4375" stroke-linejoin="round" stroke-miterlimit="10" fill="#ED7D31"/><path d="M2883.96 398.062C2883.96 404.137 2879.03 409.061 2872.96 409.061 2866.88 409.061 2861.96 404.137 2861.96 398.062 2861.96 391.987 2866.88 387.062 2872.96 387.062 2879.03 387.062 2883.96 391.987 2883.96 398.062Z" stroke="#ED7D31" stroke-width="3.4375" stroke-linejoin="round" stroke-miterlimit="10" fill="#ED7D31"/><path d="M2965.96 398.062C2965.96 404.137 2961.03 409.061 2954.96 409.061 2948.88 409.061 2943.96 404.137 2943.96 398.062 2943.96 391.987 2948.88 387.062 2954.96 387.062 2961.03 387.062 2965.96 391.987 2965.96 398.062Z" stroke="#ED7D31" stroke-width="3.4375" stroke-linejoin="round" stroke-miterlimit="10" fill="#ED7D31"/><path d="M3047.96 398.062C3047.96 404.137 3043.03 409.061 3036.96 409.061 3030.88 409.061 3025.96 404.137 3025.96 398.062 3025.96 391.987 3030.88 387.062 3036.96 387.062 3043.03 387.062 3047.96 391.987 3047.96 398.062Z" stroke="#ED7D31" stroke-width="3.4375" stroke-linejoin="round" stroke-miterlimit="10" fill="#ED7D31"/><path d="M3129.96 398.062C3129.96 404.137 3125.03 409.061 3118.96 409.061 3112.88 409.061 3107.96 404.137 3107.96 398.062 3107.96 391.987 3112.88 387.062 3118.96 387.062 3125.03 387.062 3129.96 391.987 3129.96 398.062Z" stroke="#ED7D31" stroke-width="3.4375" stroke-linejoin="round" stroke-miterlimit="10" fill="#ED7D31"/><path d="M3211.96 398.062C3211.96 404.137 3207.03 409.061 3200.96 409.061 3194.88 409.061 3189.96 404.137 3189.96 398.062 3189.96 391.987 3194.88 387.062 3200.96 387.062 3207.03 387.062 3211.96 391.987 3211.96 398.062Z" stroke="#ED7D31" stroke-width="3.4375" stroke-linejoin="round" stroke-miterlimit="10" fill="#ED7D31"/></g><g clip-path="url(#clip9)"><path d="M1969.5 397.8C1996.86 524.504 2024.21 775.326 2051.57 777.913 2078.92 780.5 2106.28 475.683 2133.63 413.322 2150.22 375.5 2199.11 404.913 2215.7 403.745 2243.06 401.818 2270.41 402.203 2297.77 401.763 2325.12 401.323 2352.48 401.268 2379.83 401.103 2407.19 400.938 2434.54 400.938 2461.9 400.773 2489.26 400.607 2516.61 400.277 2543.97 400.112 2571.32 399.947 2598.68 399.892 2626.03 399.782 2653.39 399.672 2680.74 399.452 2708.1 399.452 2735.46 399.452 2762.81 399.837 2790.17 399.782 2817.52 399.727 2844.88 399.231 2872.23 399.122 2899.59 399.011 2926.94 399.176 2954.3 399.122 2981.66 399.066 3009.01 398.791 3036.37 398.791 3063.72 398.791 3091.08 399.122 3118.43 399.122 3145.79 399.122 3173.14 398.901 3200.5 398.791" stroke="#A5A5A5" stroke-width="6.875" stroke-linecap="round" stroke-linejoin="round" stroke-miterlimit="10" fill="none"/></g><g clip-path="url(#clip10)"><path d="M1980.96 397.062C1980.96 403.137 1976.03 408.061 1969.96 408.061 1963.88 408.061 1958.96 403.137 1958.96 397.062 1958.96 390.987 1963.88 386.062 1969.96 386.062 1976.03 386.062 1980.96 390.987 1980.96 397.062Z" stroke="#A5A5A5" stroke-width="3.4375" stroke-linejoin="round" stroke-miterlimit="10" fill="#A5A5A5"/><path d="M2062.96 777.062C2062.96 783.137 2058.03 788.062 2051.96 788.062 2045.88 788.062 2040.96 783.137 2040.96 777.062 2040.96 770.987 2045.88 766.062 2051.96 766.062 2058.03 766.062 2062.96 770.987 2062.96 777.062Z" stroke="#A5A5A5" stroke-width="3.4375" stroke-linejoin="round" stroke-miterlimit="10" fill="#A5A5A5"/><path d="M2144.96 413.062C2144.96 419.137 2140.03 424.062 2133.96 424.062 2127.88 424.062 2122.96 419.137 2122.96 413.062 2122.96 406.987 2127.88 402.062 2133.96 402.062 2140.03 402.062 2144.96 406.987 2144.96 413.062Z" stroke="#A5A5A5" stroke-width="3.4375" stroke-linejoin="round" stroke-miterlimit="10" fill="#A5A5A5"/><path d="M2226.96 403.062C2226.96 409.137 2222.03 414.062 2215.96 414.062 2209.88 414.062 2204.96 409.137 2204.96 403.062 2204.96 396.987 2209.88 392.062 2215.96 392.062 2222.03 392.062 2226.96 396.987 2226.96 403.062Z" stroke="#A5A5A5" stroke-width="3.4375" stroke-linejoin="round" stroke-miterlimit="10" fill="#A5A5A5"/><path d="M2308.96 401.062C2308.96 407.137 2304.03 412.062 2297.96 412.062 2291.88 412.062 2286.96 407.137 2286.96 401.062 2286.96 394.987 2291.88 390.062 2297.96 390.062 2304.03 390.062 2308.96 394.987 2308.96 401.062Z" stroke="#A5A5A5" stroke-width="3.4375" stroke-linejoin="round" stroke-miterlimit="10" fill="#A5A5A5"/><path d="M2390.96 400.062C2390.96 406.137 2386.03 411.061 2379.96 411.061 2373.88 411.061 2368.96 406.137 2368.96 400.062 2368.96 393.987 2373.88 389.062 2379.96 389.062 2386.03 389.062 2390.96 393.987 2390.96 400.062Z" stroke="#A5A5A5" stroke-width="3.4375" stroke-linejoin="round" stroke-miterlimit="10" fill="#A5A5A5"/><path d="M2472.96 400.062C2472.96 406.137 2468.03 411.061 2461.96 411.061 2455.88 411.061 2450.96 406.137 2450.96 400.062 2450.96 393.987 2455.88 389.062 2461.96 389.062 2468.03 389.062 2472.96 393.987 2472.96 400.062Z" stroke="#A5A5A5" stroke-width="3.4375" stroke-linejoin="round" stroke-miterlimit="10" fill="#A5A5A5"/><path d="M2554.96 399.062C2554.96 405.137 2550.03 410.061 2543.96 410.061 2537.88 410.061 2532.96 405.137 2532.96 399.062 2532.96 392.987 2537.88 388.062 2543.96 388.062 2550.03 388.062 2554.96 392.987 2554.96 399.062Z" stroke="#A5A5A5" stroke-width="3.4375" stroke-linejoin="round" stroke-miterlimit="10" fill="#A5A5A5"/><path d="M2636.96 399.062C2636.96 405.137 2632.03 410.061 2625.96 410.061 2619.88 410.061 2614.96 405.137 2614.96 399.062 2614.96 392.987 2619.88 388.062 2625.96 388.062 2632.03 388.062 2636.96 392.987 2636.96 399.062Z" stroke="#A5A5A5" stroke-width="3.4375" stroke-linejoin="round" stroke-miterlimit="10" fill="#A5A5A5"/><path d="M2718.96 399.062C2718.96 405.137 2714.03 410.061 2707.96 410.061 2701.88 410.061 2696.96 405.137 2696.96 399.062 2696.96 392.987 2701.88 388.062 2707.96 388.062 2714.03 388.062 2718.96 392.987 2718.96 399.062Z" stroke="#A5A5A5" stroke-width="3.4375" stroke-linejoin="round" stroke-miterlimit="10" fill="#A5A5A5"/><path d="M2801.96 399.062C2801.96 405.137 2797.03 410.061 2790.96 410.061 2784.88 410.061 2779.96 405.137 2779.96 399.062 2779.96 392.987 2784.88 388.062 2790.96 388.062 2797.03 388.062 2801.96 392.987 2801.96 399.062Z" stroke="#A5A5A5" stroke-width="3.4375" stroke-linejoin="round" stroke-miterlimit="10" fill="#A5A5A5"/><path d="M2883.96 398.062C2883.96 404.137 2879.03 409.061 2872.96 409.061 2866.88 409.061 2861.96 404.137 2861.96 398.062 2861.96 391.987 2866.88 387.062 2872.96 387.062 2879.03 387.062 2883.96 391.987 2883.96 398.062Z" stroke="#A5A5A5" stroke-width="3.4375" stroke-linejoin="round" stroke-miterlimit="10" fill="#A5A5A5"/><path d="M2965.96 398.062C2965.96 404.137 2961.03 409.061 2954.96 409.061 2948.88 409.061 2943.96 404.137 2943.96 398.062 2943.96 391.987 2948.88 387.062 2954.96 387.062 2961.03 387.062 2965.96 391.987 2965.96 398.062Z" stroke="#A5A5A5" stroke-width="3.4375" stroke-linejoin="round" stroke-miterlimit="10" fill="#A5A5A5"/><path d="M3047.96 398.062C3047.96 404.137 3043.03 409.061 3036.96 409.061 3030.88 409.061 3025.96 404.137 3025.96 398.062 3025.96 391.987 3030.88 387.062 3036.96 387.062 3043.03 387.062 3047.96 391.987 3047.96 398.062Z" stroke="#A5A5A5" stroke-width="3.4375" stroke-linejoin="round" stroke-miterlimit="10" fill="#A5A5A5"/><path d="M3129.96 398.062C3129.96 404.137 3125.03 409.061 3118.96 409.061 3112.88 409.061 3107.96 404.137 3107.96 398.062 3107.96 391.987 3112.88 387.062 3118.96 387.062 3125.03 387.062 3129.96 391.987 3129.96 398.062Z" stroke="#A5A5A5" stroke-width="3.4375" stroke-linejoin="round" stroke-miterlimit="10" fill="#A5A5A5"/><path d="M3211.96 398.062C3211.96 404.137 3207.03 409.061 3200.96 409.061 3194.88 409.061 3189.96 404.137 3189.96 398.062 3189.96 391.987 3194.88 387.062 3200.96 387.062 3207.03 387.062 3211.96 391.987 3211.96 398.062Z" stroke="#A5A5A5" stroke-width="3.4375" stroke-linejoin="round" stroke-miterlimit="10" fill="#A5A5A5"/></g><g clip-path="url(#clip11)"><path d="M1969.5 397.169C1996.86 541.888 2024.21 828.154 2051.57 831.327 2078.92 834.5 2106.28 487.43 2133.63 416.208 2148.5 377.5 2200.83 405.298 2215.7 403.992 2243.06 401.589 2270.41 402.323 2297.77 401.791 2325.12 401.259 2352.48 401.039 2379.83 400.8 2407.19 400.562 2434.54 400.544 2461.9 400.36 2489.26 400.177 2516.61 399.846 2543.97 399.7 2571.32 399.553 2598.68 399.59 2626.03 399.48 2653.39 399.37 2680.74 399.113 2708.1 399.039 2735.46 398.966 2762.81 399.094 2790.17 399.039 2817.52 398.984 2844.88 398.764 2872.23 398.71 2899.59 398.654 2926.94 398.764 2954.3 398.71 2981.66 398.654 3009.01 398.416 3036.37 398.379 3063.72 398.343 3091.08 398.508 3118.43 398.489 3145.79 398.471 3173.14 398.343 3200.5 398.269" stroke="#FFC000" stroke-width="6.875" stroke-linecap="round" stroke-linejoin="round" stroke-miterlimit="10" fill="none"/></g><g clip-path="url(#clip12)"><path d="M1980.96 397.062C1980.96 403.137 1976.03 408.061 1969.96 408.061 1963.88 408.061 1958.96 403.137 1958.96 397.062 1958.96 390.987 1963.88 386.062 1969.96 386.062 1976.03 386.062 1980.96 390.987 1980.96 397.062Z" stroke="#FFC000" stroke-width="3.4375" stroke-linejoin="round" stroke-miterlimit="10" fill="#FFC000"/><path d="M2062.96 831.062C2062.96 837.137 2058.03 842.062 2051.96 842.062 2045.88 842.062 2040.96 837.137 2040.96 831.062 2040.96 824.987 2045.88 820.062 2051.96 820.062 2058.03 820.062 2062.96 824.987 2062.96 831.062Z" stroke="#FFC000" stroke-width="3.4375" stroke-linejoin="round" stroke-miterlimit="10" fill="#FFC000"/><path d="M2144.96 416.062C2144.96 422.137 2140.03 427.062 2133.96 427.062 2127.88 427.062 2122.96 422.137 2122.96 416.062 2122.96 409.987 2127.88 405.062 2133.96 405.062 2140.03 405.062 2144.96 409.987 2144.96 416.062Z" stroke="#FFC000" stroke-width="3.4375" stroke-linejoin="round" stroke-miterlimit="10" fill="#FFC000"/><path d="M2226.96 404.062C2226.96 410.137 2222.03 415.062 2215.96 415.062 2209.88 415.062 2204.96 410.137 2204.96 404.062 2204.96 397.987 2209.88 393.062 2215.96 393.062 2222.03 393.062 2226.96 397.987 2226.96 404.062Z" stroke="#FFC000" stroke-width="3.4375" stroke-linejoin="round" stroke-miterlimit="10" fill="#FFC000"/><path d="M2308.96 402.062C2308.96 408.137 2304.03 413.062 2297.96 413.062 2291.88 413.062 2286.96 408.137 2286.96 402.062 2286.96 395.987 2291.88 391.062 2297.96 391.062 2304.03 391.062 2308.96 395.987 2308.96 402.062Z" stroke="#FFC000" stroke-width="3.4375" stroke-linejoin="round" stroke-miterlimit="10" fill="#FFC000"/><path d="M2390.96 401.062C2390.96 407.137 2386.03 412.062 2379.96 412.062 2373.88 412.062 2368.96 407.137 2368.96 401.062 2368.96 394.987 2373.88 390.062 2379.96 390.062 2386.03 390.062 2390.96 394.987 2390.96 401.062Z" stroke="#FFC000" stroke-width="3.4375" stroke-linejoin="round" stroke-miterlimit="10" fill="#FFC000"/><path d="M2472.96 400.062C2472.96 406.137 2468.03 411.061 2461.96 411.061 2455.88 411.061 2450.96 406.137 2450.96 400.062 2450.96 393.987 2455.88 389.062 2461.96 389.062 2468.03 389.062 2472.96 393.987 2472.96 400.062Z" stroke="#FFC000" stroke-width="3.4375" stroke-linejoin="round" stroke-miterlimit="10" fill="#FFC000"/><path d="M2554.96 400.062C2554.96 406.137 2550.03 411.061 2543.96 411.061 2537.88 411.061 2532.96 406.137 2532.96 400.062 2532.96 393.987 2537.88 389.062 2543.96 389.062 2550.03 389.062 2554.96 393.987 2554.96 400.062Z" stroke="#FFC000" stroke-width="3.4375" stroke-linejoin="round" stroke-miterlimit="10" fill="#FFC000"/><path d="M2636.96 399.062C2636.96 405.137 2632.03 410.061 2625.96 410.061 2619.88 410.061 2614.96 405.137 2614.96 399.062 2614.96 392.987 2619.88 388.062 2625.96 388.062 2632.03 388.062 2636.96 392.987 2636.96 399.062Z" stroke="#FFC000" stroke-width="3.4375" stroke-linejoin="round" stroke-miterlimit="10" fill="#FFC000"/><path d="M2718.96 399.062C2718.96 405.137 2714.03 410.061 2707.96 410.061 2701.88 410.061 2696.96 405.137 2696.96 399.062 2696.96 392.987 2701.88 388.062 2707.96 388.062 2714.03 388.062 2718.96 392.987 2718.96 399.062Z" stroke="#FFC000" stroke-width="3.4375" stroke-linejoin="round" stroke-miterlimit="10" fill="#FFC000"/><path d="M2801.96 399.062C2801.96 405.137 2797.03 410.061 2790.96 410.061 2784.88 410.061 2779.96 405.137 2779.96 399.062 2779.96 392.987 2784.88 388.062 2790.96 388.062 2797.03 388.062 2801.96 392.987 2801.96 399.062Z" stroke="#FFC000" stroke-width="3.4375" stroke-linejoin="round" stroke-miterlimit="10" fill="#FFC000"/><path d="M2883.96 399.062C2883.96 405.137 2879.03 410.061 2872.96 410.061 2866.88 410.061 2861.96 405.137 2861.96 399.062 2861.96 392.987 2866.88 388.062 2872.96 388.062 2879.03 388.062 2883.96 392.987 2883.96 399.062Z" stroke="#FFC000" stroke-width="3.4375" stroke-linejoin="round" stroke-miterlimit="10" fill="#FFC000"/><path d="M2965.96 399.062C2965.96 405.137 2961.03 410.061 2954.96 410.061 2948.88 410.061 2943.96 405.137 2943.96 399.062 2943.96 392.987 2948.88 388.062 2954.96 388.062 2961.03 388.062 2965.96 392.987 2965.96 399.062Z" stroke="#FFC000" stroke-width="3.4375" stroke-linejoin="round" stroke-miterlimit="10" fill="#FFC000"/><path d="M3047.96 398.062C3047.96 404.137 3043.03 409.061 3036.96 409.061 3030.88 409.061 3025.96 404.137 3025.96 398.062 3025.96 391.987 3030.88 387.062 3036.96 387.062 3043.03 387.062 3047.96 391.987 3047.96 398.062Z" stroke="#FFC000" stroke-width="3.4375" stroke-linejoin="round" stroke-miterlimit="10" fill="#FFC000"/><path d="M3129.96 398.062C3129.96 404.137 3125.03 409.061 3118.96 409.061 3112.88 409.061 3107.96 404.137 3107.96 398.062 3107.96 391.987 3112.88 387.062 3118.96 387.062 3125.03 387.062 3129.96 391.987 3129.96 398.062Z" stroke="#FFC000" stroke-width="3.4375" stroke-linejoin="round" stroke-miterlimit="10" fill="#FFC000"/><path d="M3211.96 398.062C3211.96 404.137 3207.03 409.061 3200.96 409.061 3194.88 409.061 3189.96 404.137 3189.96 398.062 3189.96 391.987 3194.88 387.062 3200.96 387.062 3207.03 387.062 3211.96 391.987 3211.96 398.062Z" stroke="#FFC000" stroke-width="3.4375" stroke-linejoin="round" stroke-miterlimit="10" fill="#FFC000"/></g><g clip-path="url(#clip13)"><path d="M1969.5 398.013C1996.86 543.11 2024.21 830.111 2051.57 833.306 2078.92 836.5 2106.28 488.577 2133.63 417.178 2148.45 378.5 2200.88 406.216 2215.7 404.909 2243.06 402.496 2270.41 403.236 2297.77 402.703 2325.12 402.17 2352.48 401.95 2379.83 401.713 2407.19 401.475 2434.54 401.461 2461.9 401.277 2489.26 401.094 2516.61 400.759 2543.97 400.612 2571.32 400.465 2598.68 400.506 2626.03 400.396 2653.39 400.285 2680.74 400.022 2708.1 399.949 2735.46 399.876 2762.81 400.012 2790.17 399.957 2817.52 399.903 2844.88 399.676 2872.23 399.621 2899.59 399.566 2926.94 399.682 2954.3 399.627 2981.66 399.571 3009.01 399.323 3036.37 399.286 3063.72 399.25 3091.08 399.425 3118.43 399.407 3145.79 399.389 3173.14 399.255 3200.5 399.18" stroke="#5B9BD5" stroke-width="6.875" stroke-linecap="round" stroke-linejoin="round" stroke-miterlimit="10" fill="none"/></g><g clip-path="url(#clip14)"><path d="M1980.96 397.062C1980.96 403.137 1976.03 408.061 1969.96 408.061 1963.88 408.061 1958.96 403.137 1958.96 397.062 1958.96 390.987 1963.88 386.062 1969.96 386.062 1976.03 386.062 1980.96 390.987 1980.96 397.062Z" stroke="#5B9BD5" stroke-width="3.4375" stroke-linejoin="round" stroke-miterlimit="10" fill="#5B9BD5"/><path d="M2062.96 833.062C2062.96 839.137 2058.03 844.062 2051.96 844.062 2045.88 844.062 2040.96 839.137 2040.96 833.062 2040.96 826.987 2045.88 822.062 2051.96 822.062 2058.03 822.062 2062.96 826.987 2062.96 833.062Z" stroke="#5B9BD5" stroke-width="3.4375" stroke-linejoin="round" stroke-miterlimit="10" fill="#5B9BD5"/><path d="M2144.96 416.062C2144.96 422.137 2140.03 427.062 2133.96 427.062 2127.88 427.062 2122.96 422.137 2122.96 416.062 2122.96 409.987 2127.88 405.062 2133.96 405.062 2140.03 405.062 2144.96 409.987 2144.96 416.062Z" stroke="#5B9BD5" stroke-width="3.4375" stroke-linejoin="round" stroke-miterlimit="10" fill="#5B9BD5"/><path d="M2226.96 404.062C2226.96 410.137 2222.03 415.062 2215.96 415.062 2209.88 415.062 2204.96 410.137 2204.96 404.062 2204.96 397.987 2209.88 393.062 2215.96 393.062 2222.03 393.062 2226.96 397.987 2226.96 404.062Z" stroke="#5B9BD5" stroke-width="3.4375" stroke-linejoin="round" stroke-miterlimit="10" fill="#5B9BD5"/><path d="M2308.96 402.062C2308.96 408.137 2304.03 413.062 2297.96 413.062 2291.88 413.062 2286.96 408.137 2286.96 402.062 2286.96 395.987 2291.88 391.062 2297.96 391.062 2304.03 391.062 2308.96 395.987 2308.96 402.062Z" stroke="#5B9BD5" stroke-width="3.4375" stroke-linejoin="round" stroke-miterlimit="10" fill="#5B9BD5"/><path d="M2390.96 401.062C2390.96 407.137 2386.03 412.062 2379.96 412.062 2373.88 412.062 2368.96 407.137 2368.96 401.062 2368.96 394.987 2373.88 390.062 2379.96 390.062 2386.03 390.062 2390.96 394.987 2390.96 401.062Z" stroke="#5B9BD5" stroke-width="3.4375" stroke-linejoin="round" stroke-miterlimit="10" fill="#5B9BD5"/><path d="M2472.96 400.062C2472.96 406.137 2468.03 411.061 2461.96 411.061 2455.88 411.061 2450.96 406.137 2450.96 400.062 2450.96 393.987 2455.88 389.062 2461.96 389.062 2468.03 389.062 2472.96 393.987 2472.96 400.062Z" stroke="#5B9BD5" stroke-width="3.4375" stroke-linejoin="round" stroke-miterlimit="10" fill="#5B9BD5"/><path d="M2554.96 400.062C2554.96 406.137 2550.03 411.061 2543.96 411.061 2537.88 411.061 2532.96 406.137 2532.96 400.062 2532.96 393.987 2537.88 389.062 2543.96 389.062 2550.03 389.062 2554.96 393.987 2554.96 400.062Z" stroke="#5B9BD5" stroke-width="3.4375" stroke-linejoin="round" stroke-miterlimit="10" fill="#5B9BD5"/><path d="M2636.96 399.062C2636.96 405.137 2632.03 410.061 2625.96 410.061 2619.88 410.061 2614.96 405.137 2614.96 399.062 2614.96 392.987 2619.88 388.062 2625.96 388.062 2632.03 388.062 2636.96 392.987 2636.96 399.062Z" stroke="#5B9BD5" stroke-width="3.4375" stroke-linejoin="round" stroke-miterlimit="10" fill="#5B9BD5"/><path d="M2718.96 399.062C2718.96 405.137 2714.03 410.061 2707.96 410.061 2701.88 410.061 2696.96 405.137 2696.96 399.062 2696.96 392.987 2701.88 388.062 2707.96 388.062 2714.03 388.062 2718.96 392.987 2718.96 399.062Z" stroke="#5B9BD5" stroke-width="3.4375" stroke-linejoin="round" stroke-miterlimit="10" fill="#5B9BD5"/><path d="M2801.96 399.062C2801.96 405.137 2797.03 410.061 2790.96 410.061 2784.88 410.061 2779.96 405.137 2779.96 399.062 2779.96 392.987 2784.88 388.062 2790.96 388.062 2797.03 388.062 2801.96 392.987 2801.96 399.062Z" stroke="#5B9BD5" stroke-width="3.4375" stroke-linejoin="round" stroke-miterlimit="10" fill="#5B9BD5"/><path d="M2883.96 399.062C2883.96 405.137 2879.03 410.061 2872.96 410.061 2866.88 410.061 2861.96 405.137 2861.96 399.062 2861.96 392.987 2866.88 388.062 2872.96 388.062 2879.03 388.062 2883.96 392.987 2883.96 399.062Z" stroke="#5B9BD5" stroke-width="3.4375" stroke-linejoin="round" stroke-miterlimit="10" fill="#5B9BD5"/><path d="M2965.96 399.062C2965.96 405.137 2961.03 410.061 2954.96 410.061 2948.88 410.061 2943.96 405.137 2943.96 399.062 2943.96 392.987 2948.88 388.062 2954.96 388.062 2961.03 388.062 2965.96 392.987 2965.96 399.062Z" stroke="#5B9BD5" stroke-width="3.4375" stroke-linejoin="round" stroke-miterlimit="10" fill="#5B9BD5"/><path d="M3047.96 398.062C3047.96 404.137 3043.03 409.061 3036.96 409.061 3030.88 409.061 3025.96 404.137 3025.96 398.062 3025.96 391.987 3030.88 387.062 3036.96 387.062 3043.03 387.062 3047.96 391.987 3047.96 398.062Z" stroke="#5B9BD5" stroke-width="3.4375" stroke-linejoin="round" stroke-miterlimit="10" fill="#5B9BD5"/><path d="M3129.96 398.062C3129.96 404.137 3125.03 409.061 3118.96 409.061 3112.88 409.061 3107.96 404.137 3107.96 398.062 3107.96 391.987 3112.88 387.062 3118.96 387.062 3125.03 387.062 3129.96 391.987 3129.96 398.062Z" stroke="#5B9BD5" stroke-width="3.4375" stroke-linejoin="round" stroke-miterlimit="10" fill="#5B9BD5"/><path d="M3211.96 398.062C3211.96 404.137 3207.03 409.061 3200.96 409.061 3194.88 409.061 3189.96 404.137 3189.96 398.062 3189.96 391.987 3194.88 387.062 3200.96 387.062 3207.03 387.062 3211.96 391.987 3211.96 398.062Z" stroke="#5B9BD5" stroke-width="3.4375" stroke-linejoin="round" stroke-miterlimit="10" fill="#5B9BD5"/></g><g clip-path="url(#clip15)"><text fill="#595959" font-family="Calibri,Calibri_MSFontService,sans-serif" font-weight="400" font-size="41" transform="matrix(1 0 0 1 1856.25 937)">-160</text></g><g clip-path="url(#clip16)"><text fill="#595959" font-family="Calibri,Calibri_MSFontService,sans-serif" font-weight="400" font-size="41" transform="matrix(1 0 0 1 1856.25 871)">-140</text></g><g clip-path="url(#clip17)"><text fill="#595959" font-family="Calibri,Calibri_MSFontService,sans-serif" font-weight="400" font-size="41" transform="matrix(1 0 0 1 1856.25 805)">-120</text></g><g clip-path="url(#clip18)"><text fill="#595959" font-family="Calibri,Calibri_MSFontService,sans-serif" font-weight="400" font-size="41" transform="matrix(1 0 0 1 1856.25 739)">-100</text></g><g clip-path="url(#clip19)"><text fill="#595959" font-family="Calibri,Calibri_MSFontService,sans-serif" font-weight="400" font-size="41" transform="matrix(1 0 0 1 1877.15 673)">-80</text></g><g clip-path="url(#clip20)"><text fill="#595959" font-family="Calibri,Calibri_MSFontService,sans-serif" font-weight="400" font-size="41" transform="matrix(1 0 0 1 1877.15 607)">-60</text></g><g clip-path="url(#clip21)"><text fill="#595959" font-family="Calibri,Calibri_MSFontService,sans-serif" font-weight="400" font-size="41" transform="matrix(1 0 0 1 1877.15 541)">-40</text></g><g clip-path="url(#clip22)"><text fill="#595959" font-family="Calibri,Calibri_MSFontService,sans-serif" font-weight="400" font-size="41" transform="matrix(1 0 0 1 1877.15 475)">-20</text></g><g clip-path="url(#clip23)"><text fill="#595959" font-family="Calibri,Calibri_MSFontService,sans-serif" font-weight="400" font-size="41" transform="matrix(1 0 0 1 1910.68 409)">0</text></g><g clip-path="url(#clip24)"><text fill="#595959" font-family="Calibri,Calibri_MSFontService,sans-serif" font-weight="400" font-size="41" transform="matrix(1 0 0 1 1889.78 343)">20</text></g><g clip-path="url(#clip25)"><text fill="#595959" font-family="Calibri,Calibri_MSFontService,sans-serif" font-weight="400" font-size="41" transform="matrix(1 0 0 1 1959.39 463)">0</text></g><g clip-path="url(#clip26)"><text fill="#595959" font-family="Calibri,Calibri_MSFontService,sans-serif" font-weight="400" font-size="41" transform="matrix(1 0 0 1 2164.44 463)">5</text></g><g clip-path="url(#clip27)"><text fill="#595959" font-family="Calibri,Calibri_MSFontService,sans-serif" font-weight="400" font-size="41" transform="matrix(1 0 0 1 2359.03 463)">10</text></g><g clip-path="url(#clip28)"><text fill="#595959" font-family="Calibri,Calibri_MSFontService,sans-serif" font-weight="400" font-size="41" transform="matrix(1 0 0 1 2564.07 463)">15</text></g><g clip-path="url(#clip29)"><text fill="#595959" font-family="Calibri,Calibri_MSFontService,sans-serif" font-weight="400" font-size="41" transform="matrix(1 0 0 1 2769.11 463)">20</text></g><g clip-path="url(#clip30)"><text fill="#595959" font-family="Calibri,Calibri_MSFontService,sans-serif" font-weight="400" font-size="41" transform="matrix(1 0 0 1 2974.16 463)">25</text></g><g clip-path="url(#clip31)"><text fill="#595959" font-family="Calibri,Calibri_MSFontService,sans-serif" font-weight="400" font-size="41" transform="matrix(1 0 0 1 3179.2 463)">30</text></g><g clip-path="url(#clip32)"><text fill="#595959" font-family="Calibri,Calibri_MSFontService,sans-serif" font-weight="400" font-size="41" transform="matrix(1 0 0 1 3384.24 463)">35</text></g><g clip-path="url(#clip33)"><text fill="#595959" font-family="Calibri,Calibri_MSFontService,sans-serif" font-weight="400" font-size="64" transform="matrix(1 0 0 1 2536.08 257)">Entladen</text></g><g clip-path="url(#clip34)"><path d="M2000.5 1014.5 2088.5 1014.5" stroke="#4472C4" stroke-width="6.875" stroke-linecap="round" stroke-linejoin="round" stroke-miterlimit="10" fill="none" fill-rule="evenodd"/></g><g clip-path="url(#clip35)"><path d="M2055 1014C2055 1020.07 2050.08 1025 2044 1025 2037.93 1025 2033 1020.07 2033 1014 2033 1007.92 2037.93 1003 2044 1003 2050.08 1003 2055 1007.92 2055 1014Z" stroke="#4472C4" stroke-width="3.4375" stroke-linejoin="round" stroke-miterlimit="10" fill="#4472C4"/></g><g clip-path="url(#clip36)"><text fill="#595959" font-family="Calibri,Calibri_MSFontService,sans-serif" font-weight="400" font-size="41" transform="matrix(1 0 0 1 2098.16 1026)">Versuch 1</text></g><g clip-path="url(#clip37)"><path d="M2444.5 1014.5 2532.5 1014.5" stroke="#ED7D31" stroke-width="6.875" stroke-linecap="round" stroke-linejoin="round" stroke-miterlimit="10" fill="none" fill-rule="evenodd"/></g><g clip-path="url(#clip38)"><path d="M2499 1014C2499 1020.07 2494.07 1025 2488 1025 2481.92 1025 2477 1020.07 2477 1014 2477 1007.92 2481.92 1003 2488 1003 2494.07 1003 2499 1007.92 2499 1014Z" stroke="#ED7D31" stroke-width="3.4375" stroke-linejoin="round" stroke-miterlimit="10" fill="#ED7D31"/></g><g clip-path="url(#clip39)"><text fill="#595959" font-family="Calibri,Calibri_MSFontService,sans-serif" font-weight="400" font-size="41" transform="matrix(1 0 0 1 2541.5 1026)">Versuch 2</text></g><g clip-path="url(#clip40)"><path d="M2887.5 1014.5 2975.5 1014.5" stroke="#A5A5A5" stroke-width="6.875" stroke-linecap="round" stroke-linejoin="round" stroke-miterlimit="10" fill="none" fill-rule="evenodd"/></g><g clip-path="url(#clip41)"><path d="M2942 1014C2942 1020.07 2937.07 1025 2931 1025 2924.93 1025 2920 1020.07 2920 1014 2920 1007.92 2924.93 1003 2931 1003 2937.07 1003 2942 1007.92 2942 1014Z" stroke="#A5A5A5" stroke-width="3.4375" stroke-linejoin="round" stroke-miterlimit="10" fill="#A5A5A5"/></g><g clip-path="url(#clip42)"><text fill="#595959" font-family="Calibri,Calibri_MSFontService,sans-serif" font-weight="400" font-size="41" transform="matrix(1 0 0 1 2984.85 1026)">Versuch 3</text></g><g clip-path="url(#clip43)"><path d="M2000.5 1092.5 2088.5 1092.5" stroke="#FFC000" stroke-width="6.875" stroke-linecap="round" stroke-linejoin="round" stroke-miterlimit="10" fill="none" fill-rule="evenodd"/></g><g clip-path="url(#clip44)"><path d="M2055 1092C2055 1098.07 2050.08 1103 2044 1103 2037.93 1103 2033 1098.07 2033 1092 2033 1085.92 2037.93 1081 2044 1081 2050.08 1081 2055 1085.92 2055 1092Z" stroke="#FFC000" stroke-width="3.4375" stroke-linejoin="round" stroke-miterlimit="10" fill="#FFC000"/></g><g clip-path="url(#clip45)"><text fill="#595959" font-family="Calibri,Calibri_MSFontService,sans-serif" font-weight="400" font-size="41" transform="matrix(1 0 0 1 2098.16 1104)">Durchschnitt</text></g><g clip-path="url(#clip46)"><path d="M2444.5 1092.5 2532.5 1092.5" stroke="#5B9BD5" stroke-width="6.875" stroke-linecap="round" stroke-linejoin="round" stroke-miterlimit="10" fill="none" fill-rule="evenodd"/></g><g clip-path="url(#clip47)"><path d="M2499 1092C2499 1098.07 2494.07 1103 2488 1103 2481.92 1103 2477 1098.07 2477 1092 2477 1085.92 2481.92 1081 2488 1081 2494.07 1081 2499 1085.92 2499 1092Z" stroke="#5B9BD5" stroke-width="3.4375" stroke-linejoin="round" stroke-miterlimit="10" fill="#5B9BD5"/></g><g clip-path="url(#clip48)"><text fill="#595959" font-family="Calibri,Calibri_MSFontService,sans-serif" font-weight="400" font-size="41" transform="matrix(1 0 0 1 2541.5 1104)">Theoretische Werte</text></g><rect x="1826.5" y="162.5" width="1650" height="990" stroke="#D9D9D9" stroke-width="3.4375" stroke-linejoin="round" stroke-miterlimit="10" fill="none"/></g></svg>