<svg width="4995" height="2449" xmlns="http://www.w3.org/2000/svg" xmlns:xlink="http://www.w3.org/1999/xlink" overflow="hidden"><defs><clipPath id="clip0"><rect x="2002" y="234" width="4995" height="2449"/></clipPath><clipPath id="clip1"><rect x="2003" y="235" width="4992" height="2446"/></clipPath><clipPath id="clip2"><rect x="2003" y="235" width="4992" height="2446"/></clipPath><clipPath id="clip3"><rect x="2003" y="235" width="4992" height="2446"/></clipPath><clipPath id="clip4"><rect x="2003" y="235" width="4992" height="2446"/></clipPath><clipPath id="clip5"><rect x="2113" y="405" width="4814" height="2068"/></clipPath><clipPath id="clip6"><rect x="2003" y="235" width="4992" height="2446"/></clipPath><clipPath id="clip7"><rect x="2113" y="405" width="4814" height="2068"/></clipPath><clipPath id="clip8"><rect x="2003" y="235" width="4992" height="2446"/></clipPath><clipPath id="clip9"><rect x="2003" y="235" width="4992" height="2446"/></clipPath><clipPath id="clip10"><rect x="2003" y="235" width="4992" height="2446"/></clipPath><clipPath id="clip11"><rect x="2003" y="235" width="4992" height="2446"/></clipPath><clipPath id="clip12"><rect x="2003" y="235" width="4992" height="2446"/></clipPath><clipPath id="clip13"><rect x="2003" y="235" width="4992" height="2446"/></clipPath><clipPath id="clip14"><rect x="2003" y="235" width="4992" height="2446"/></clipPath><clipPath id="clip15"><rect x="2003" y="235" width="4992" height="2446"/></clipPath><clipPath id="clip16"><rect x="2003" y="235" width="4992" height="2446"/></clipPath><clipPath id="clip17"><rect x="2003" y="235" width="4992" height="2446"/></clipPath><clipPath id="clip18"><rect x="2003" y="235" width="4992" height="2446"/></clipPath><clipPath id="clip19"><rect x="2003" y="235" width="4992" height="2446"/></clipPath><clipPath id="clip20"><rect x="2003" y="235" width="4992" height="2446"/></clipPath><clipPath id="clip21"><rect x="2003" y="235" width="4992" height="2446"/></clipPath><clipPath id="clip22"><rect x="2003" y="235" width="4992" height="2446"/></clipPath><clipPath id="clip23"><rect x="2003" y="235" width="4992" height="2446"/></clipPath><clipPath id="clip24"><rect x="2003" y="235" width="4992" height="2446"/></clipPath><clipPath id="clip25"><rect x="2003" y="235" width="4992" height="2446"/></clipPath><clipPath id="clip26"><rect x="2003" y="235" width="4992" height="2446"/></clipPath><clipPath id="clip27"><rect x="2003" y="235" width="4992" height="2446"/></clipPath><clipPath id="clip28"><rect x="2003" y="235" width="4992" height="2446"/></clipPath><clipPath id="clip29"><rect x="2003" y="235" width="4992" height="2446"/></clipPath><clipPath id="clip30"><rect x="2003" y="235" width="4992" height="2446"/></clipPath><clipPath id="clip31"><rect x="2003" y="235" width="4992" height="2446"/></clipPath><clipPath id="clip32"><rect x="2003" y="235" width="4992" height="2446"/></clipPath></defs><g clip-path="url(#clip0)" transform="translate(-2002 -234)"><rect x="2003" y="235" width="4992" height="2446" fill="#FFFFFF"/><g clip-path="url(#clip1)"><path d="M2113.5 2211.57 6923.5 2211.57M2113.5 1953.56 6923.5 1953.56M2113.5 1695.56 6923.5 1695.56M2113.5 1437.55 6923.5 1437.55M2113.5 1179.54 6923.5 1179.54M2113.5 921.53 6923.5 921.53M2113.5 663.522 6923.5 663.522M2113.5 405.5 6923.5 405.5" stroke="#D9D9D9" stroke-width="3.4375" stroke-linejoin="round" stroke-miterlimit="10" fill="none"/></g><g clip-path="url(#clip2)"><path d="M2800.59 405.5 2800.59 2470.5M3487.61 405.5 3487.61 2470.5M4174.64 405.5 4174.64 2470.5M4862.66 405.5 4862.66 2470.5M5549.68 405.5 5549.68 2470.5M6236.71 405.5 6236.71 2470.5M6923.5 405.5 6923.5 2470.5" stroke="#D9D9D9" stroke-width="3.4375" stroke-linejoin="round" stroke-miterlimit="10" fill="none"/></g><g clip-path="url(#clip3)"><path d="M0 0 0.000360892 2065" stroke="#BFBFBF" stroke-width="3.4375" stroke-linejoin="round" stroke-miterlimit="10" fill="none" fill-rule="evenodd" transform="matrix(1 0 0 -1 2113.5 2470.5)"/></g><g clip-path="url(#clip4)"><path d="M2113.5 2470.5 6923.5 2470.5" stroke="#BFBFBF" stroke-width="3.4375" stroke-linejoin="round" stroke-miterlimit="10" fill="none" fill-rule="evenodd"/></g><g clip-path="url(#clip5)"><path d="M2113.5 2470.5C2205.12 1877.44 2296.74 719.135 2388.37 691.318 2479.99 663.5 2571.61 2019.4 2663.23 2303.59 2707.75 2441.69 2893.58 2386.48 2938.1 2396.51 3029.72 2417.16 3121.34 2421.46 3212.97 2427.48 3304.59 2433.51 3396.21 2430.64 3487.83 2432.65 3579.46 2434.65 3671.08 2438.67 3762.7 2439.53 3854.32 2440.39 3945.94 2437.23 4037.57 2437.81 4129.19 2438.38 4220.81 2442.68 4312.43 2442.97 4404.06 2443.26 4495.68 2439.24 4587.3 2439.53 4678.92 2439.81 4770.54 2443.83 4862.17 2444.69 4953.79 2445.55 5045.41 2444.98 5137.03 2444.69 5228.66 2444.4 5320.28 2443.54 5411.9 2442.97 5503.52 2442.4 5595.14 2440.96 5686.77 2441.25 5778.39 2441.53 5870.01 2443.26 5961.63 2444.69 6053.26 2446.12 6190.69 2448.99 6236.5 2449.85" stroke="#FFC000" stroke-width="6.875" stroke-linecap="round" stroke-linejoin="round" stroke-miterlimit="10" fill="none"/></g><g clip-path="url(#clip6)"><path d="M2124.8 2470.78C2124.8 2476.85 2119.87 2481.78 2113.8 2481.78 2107.72 2481.78 2102.8 2476.85 2102.8 2470.78 2102.8 2464.7 2107.72 2459.78 2113.8 2459.78 2119.87 2459.78 2124.8 2464.7 2124.8 2470.78Z" stroke="#FFC000" stroke-width="3.4375" stroke-linejoin="round" stroke-miterlimit="10" fill="#FFC000"/><path d="M2399.8 690.777C2399.8 696.852 2394.87 701.777 2388.8 701.777 2382.72 701.777 2377.8 696.852 2377.8 690.777 2377.8 684.702 2382.72 679.778 2388.8 679.778 2394.87 679.778 2399.8 684.702 2399.8 690.777Z" stroke="#FFC000" stroke-width="3.4375" stroke-linejoin="round" stroke-miterlimit="10" fill="#FFC000"/><path d="M2673.8 2303.78C2673.8 2309.85 2668.87 2314.78 2662.8 2314.78 2656.72 2314.78 2651.8 2309.85 2651.8 2303.78 2651.8 2297.7 2656.72 2292.78 2662.8 2292.78 2668.87 2292.78 2673.8 2297.7 2673.8 2303.78Z" stroke="#FFC000" stroke-width="3.4375" stroke-linejoin="round" stroke-miterlimit="10" fill="#FFC000"/><path d="M2948.8 2396.78C2948.8 2402.85 2943.87 2407.78 2937.8 2407.78 2931.72 2407.78 2926.8 2402.85 2926.8 2396.78 2926.8 2390.7 2931.72 2385.78 2937.8 2385.78 2943.87 2385.78 2948.8 2390.7 2948.8 2396.78Z" stroke="#FFC000" stroke-width="3.4375" stroke-linejoin="round" stroke-miterlimit="10" fill="#FFC000"/><path d="M3223.8 2427.78C3223.8 2433.85 3218.87 2438.78 3212.8 2438.78 3206.72 2438.78 3201.8 2433.85 3201.8 2427.78 3201.8 2421.7 3206.72 2416.78 3212.8 2416.78 3218.87 2416.78 3223.8 2421.7 3223.8 2427.78Z" stroke="#FFC000" stroke-width="3.4375" stroke-linejoin="round" stroke-miterlimit="10" fill="#FFC000"/><path d="M3498.8 2432.78C3498.8 2438.85 3493.87 2443.78 3487.8 2443.78 3481.72 2443.78 3476.8 2438.85 3476.8 2432.78 3476.8 2426.7 3481.72 2421.78 3487.8 2421.78 3493.87 2421.78 3498.8 2426.7 3498.8 2432.78Z" stroke="#FFC000" stroke-width="3.4375" stroke-linejoin="round" stroke-miterlimit="10" fill="#FFC000"/><path d="M3773.8 2439.78C3773.8 2445.85 3768.87 2450.78 3762.8 2450.78 3756.72 2450.78 3751.8 2445.85 3751.8 2439.78 3751.8 2433.7 3756.72 2428.78 3762.8 2428.78 3768.87 2428.78 3773.8 2433.7 3773.8 2439.78Z" stroke="#FFC000" stroke-width="3.4375" stroke-linejoin="round" stroke-miterlimit="10" fill="#FFC000"/><path d="M4048.8 2437.78C4048.8 2443.85 4043.87 2448.78 4037.8 2448.78 4031.72 2448.78 4026.8 2443.85 4026.8 2437.78 4026.8 2431.7 4031.72 2426.78 4037.8 2426.78 4043.87 2426.78 4048.8 2431.7 4048.8 2437.78Z" stroke="#FFC000" stroke-width="3.4375" stroke-linejoin="round" stroke-miterlimit="10" fill="#FFC000"/><path d="M4323.8 2442.78C4323.8 2448.85 4318.87 2453.78 4312.8 2453.78 4306.72 2453.78 4301.8 2448.85 4301.8 2442.78 4301.8 2436.7 4306.72 2431.78 4312.8 2431.78 4318.87 2431.78 4323.8 2436.7 4323.8 2442.78Z" stroke="#FFC000" stroke-width="3.4375" stroke-linejoin="round" stroke-miterlimit="10" fill="#FFC000"/><path d="M4598.8 2439.78C4598.8 2445.85 4593.87 2450.78 4587.8 2450.78 4581.72 2450.78 4576.8 2445.85 4576.8 2439.78 4576.8 2433.7 4581.72 2428.78 4587.8 2428.78 4593.87 2428.78 4598.8 2433.7 4598.8 2439.78Z" stroke="#FFC000" stroke-width="3.4375" stroke-linejoin="round" stroke-miterlimit="10" fill="#FFC000"/><path d="M4873.8 2444.78C4873.8 2450.85 4868.87 2455.78 4862.8 2455.78 4856.72 2455.78 4851.8 2450.85 4851.8 2444.78 4851.8 2438.7 4856.72 2433.78 4862.8 2433.78 4868.87 2433.78 4873.8 2438.7 4873.8 2444.78Z" stroke="#FFC000" stroke-width="3.4375" stroke-linejoin="round" stroke-miterlimit="10" fill="#FFC000"/><path d="M5148.8 2444.78C5148.8 2450.85 5143.87 2455.78 5137.8 2455.78 5131.72 2455.78 5126.8 2450.85 5126.8 2444.78 5126.8 2438.7 5131.72 2433.78 5137.8 2433.78 5143.87 2433.78 5148.8 2438.7 5148.8 2444.78Z" stroke="#FFC000" stroke-width="3.4375" stroke-linejoin="round" stroke-miterlimit="10" fill="#FFC000"/><path d="M5423.8 2442.78C5423.8 2448.85 5418.87 2453.78 5412.8 2453.78 5406.72 2453.78 5401.8 2448.85 5401.8 2442.78 5401.8 2436.7 5406.72 2431.78 5412.8 2431.78 5418.87 2431.78 5423.8 2436.7 5423.8 2442.78Z" stroke="#FFC000" stroke-width="3.4375" stroke-linejoin="round" stroke-miterlimit="10" fill="#FFC000"/><path d="M5697.8 2440.78C5697.8 2446.85 5692.87 2451.78 5686.8 2451.78 5680.72 2451.78 5675.8 2446.85 5675.8 2440.78 5675.8 2434.7 5680.72 2429.78 5686.8 2429.78 5692.87 2429.78 5697.8 2434.7 5697.8 2440.78Z" stroke="#FFC000" stroke-width="3.4375" stroke-linejoin="round" stroke-miterlimit="10" fill="#FFC000"/><path d="M5972.8 2444.78C5972.8 2450.85 5967.87 2455.78 5961.8 2455.78 5955.72 2455.78 5950.8 2450.85 5950.8 2444.78 5950.8 2438.7 5955.72 2433.78 5961.8 2433.78 5967.87 2433.78 5972.8 2438.7 5972.8 2444.78Z" stroke="#FFC000" stroke-width="3.4375" stroke-linejoin="round" stroke-miterlimit="10" fill="#FFC000"/><path d="M6247.8 2449.78C6247.8 2455.85 6242.87 2460.78 6236.8 2460.78 6230.72 2460.78 6225.8 2455.85 6225.8 2449.78 6225.8 2443.7 6230.72 2438.78 6236.8 2438.78 6242.87 2438.78 6247.8 2443.7 6247.8 2449.78Z" stroke="#FFC000" stroke-width="3.4375" stroke-linejoin="round" stroke-miterlimit="10" fill="#FFC000"/></g><g clip-path="url(#clip7)"><path d="M2113.5 2470.5C2205.12 1879.7 2296.74 725.702 2388.37 698.101 2479.99 670.5 2571.61 2021.68 2663.23 2304.89 2707.88 2442.89 2893.46 2387.37 2938.1 2397.38 3029.72 2417.92 3121.34 2422.16 3212.97 2428.16 3304.59 2434.16 3396.21 2431.37 3487.83 2433.39 3579.46 2435.4 3671.08 2439.37 3762.7 2440.26 3854.32 2441.14 3945.94 2438.11 4037.57 2438.7 4129.19 2439.3 4220.81 2443.51 4312.43 2443.83 4404.06 2444.15 4495.68 2440.31 4587.3 2440.62 4678.92 2440.93 4770.54 2444.83 4862.17 2445.7 4953.79 2446.56 5045.41 2446.04 5137.03 2445.8 5228.66 2445.56 5320.28 2444.77 5411.9 2444.25 5503.52 2443.74 5595.14 2442.42 5686.77 2442.73 5778.39 2443.03 5870.01 2444.7 5961.63 2446.09 6053.26 2447.48 6190.69 2450.22 6236.5 2451.05" stroke="#5B9BD5" stroke-width="6.875" stroke-linecap="round" stroke-linejoin="round" stroke-miterlimit="10" fill="none"/></g><g clip-path="url(#clip8)"><path d="M2124.8 2470.78C2124.8 2476.85 2119.87 2481.78 2113.8 2481.78 2107.72 2481.78 2102.8 2476.85 2102.8 2470.78 2102.8 2464.7 2107.72 2459.78 2113.8 2459.78 2119.87 2459.78 2124.8 2464.7 2124.8 2470.78Z" stroke="#5B9BD5" stroke-width="3.4375" stroke-linejoin="round" stroke-miterlimit="10" fill="#5B9BD5"/><path d="M2399.8 698.777C2399.8 704.852 2394.87 709.777 2388.8 709.777 2382.72 709.777 2377.8 704.852 2377.8 698.777 2377.8 692.702 2382.72 687.778 2388.8 687.778 2394.87 687.778 2399.8 692.702 2399.8 698.777Z" stroke="#5B9BD5" stroke-width="3.4375" stroke-linejoin="round" stroke-miterlimit="10" fill="#5B9BD5"/><path d="M2673.8 2304.78C2673.8 2310.85 2668.87 2315.78 2662.8 2315.78 2656.72 2315.78 2651.8 2310.85 2651.8 2304.78 2651.8 2298.7 2656.72 2293.78 2662.8 2293.78 2668.87 2293.78 2673.8 2298.7 2673.8 2304.78Z" stroke="#5B9BD5" stroke-width="3.4375" stroke-linejoin="round" stroke-miterlimit="10" fill="#5B9BD5"/><path d="M2948.8 2396.78C2948.8 2402.85 2943.87 2407.78 2937.8 2407.78 2931.72 2407.78 2926.8 2402.85 2926.8 2396.78 2926.8 2390.7 2931.72 2385.78 2937.8 2385.78 2943.87 2385.78 2948.8 2390.7 2948.8 2396.78Z" stroke="#5B9BD5" stroke-width="3.4375" stroke-linejoin="round" stroke-miterlimit="10" fill="#5B9BD5"/><path d="M3223.8 2427.78C3223.8 2433.85 3218.87 2438.78 3212.8 2438.78 3206.72 2438.78 3201.8 2433.85 3201.8 2427.78 3201.8 2421.7 3206.72 2416.78 3212.8 2416.78 3218.87 2416.78 3223.8 2421.7 3223.8 2427.78Z" stroke="#5B9BD5" stroke-width="3.4375" stroke-linejoin="round" stroke-miterlimit="10" fill="#5B9BD5"/><path d="M3498.8 2432.78C3498.8 2438.85 3493.87 2443.78 3487.8 2443.78 3481.72 2443.78 3476.8 2438.85 3476.8 2432.78 3476.8 2426.7 3481.72 2421.78 3487.8 2421.78 3493.87 2421.78 3498.8 2426.7 3498.8 2432.78Z" stroke="#5B9BD5" stroke-width="3.4375" stroke-linejoin="round" stroke-miterlimit="10" fill="#5B9BD5"/><path d="M3773.8 2439.78C3773.8 2445.85 3768.87 2450.78 3762.8 2450.78 3756.72 2450.78 3751.8 2445.85 3751.8 2439.78 3751.8 2433.7 3756.72 2428.78 3762.8 2428.78 3768.87 2428.78 3773.8 2433.7 3773.8 2439.78Z" stroke="#5B9BD5" stroke-width="3.4375" stroke-linejoin="round" stroke-miterlimit="10" fill="#5B9BD5"/><path d="M4048.8 2438.78C4048.8 2444.85 4043.87 2449.78 4037.8 2449.78 4031.72 2449.78 4026.8 2444.85 4026.8 2438.78 4026.8 2432.7 4031.72 2427.78 4037.8 2427.78 4043.87 2427.78 4048.8 2432.7 4048.8 2438.78Z" stroke="#5B9BD5" stroke-width="3.4375" stroke-linejoin="round" stroke-miterlimit="10" fill="#5B9BD5"/><path d="M4323.8 2443.78C4323.8 2449.85 4318.87 2454.78 4312.8 2454.78 4306.72 2454.78 4301.8 2449.85 4301.8 2443.78 4301.8 2437.7 4306.72 2432.78 4312.8 2432.78 4318.87 2432.78 4323.8 2437.7 4323.8 2443.78Z" stroke="#5B9BD5" stroke-width="3.4375" stroke-linejoin="round" stroke-miterlimit="10" fill="#5B9BD5"/><path d="M4598.8 2440.78C4598.8 2446.85 4593.87 2451.78 4587.8 2451.78 4581.72 2451.78 4576.8 2446.85 4576.8 2440.78 4576.8 2434.7 4581.72 2429.78 4587.8 2429.78 4593.87 2429.78 4598.8 2434.7 4598.8 2440.78Z" stroke="#5B9BD5" stroke-width="3.4375" stroke-linejoin="round" stroke-miterlimit="10" fill="#5B9BD5"/><path d="M4873.8 2445.78C4873.8 2451.85 4868.87 2456.78 4862.8 2456.78 4856.72 2456.78 4851.8 2451.85 4851.8 2445.78 4851.8 2439.7 4856.72 2434.78 4862.8 2434.78 4868.87 2434.78 4873.8 2439.7 4873.8 2445.78Z" stroke="#5B9BD5" stroke-width="3.4375" stroke-linejoin="round" stroke-miterlimit="10" fill="#5B9BD5"/><path d="M5148.8 2445.78C5148.8 2451.85 5143.87 2456.78 5137.8 2456.78 5131.72 2456.78 5126.8 2451.85 5126.8 2445.78 5126.8 2439.7 5131.72 2434.78 5137.8 2434.78 5143.87 2434.78 5148.8 2439.7 5148.8 2445.78Z" stroke="#5B9BD5" stroke-width="3.4375" stroke-linejoin="round" stroke-miterlimit="10" fill="#5B9BD5"/><path d="M5423.8 2443.78C5423.8 2449.85 5418.87 2454.78 5412.8 2454.78 5406.72 2454.78 5401.8 2449.85 5401.8 2443.78 5401.8 2437.7 5406.72 2432.78 5412.8 2432.78 5418.87 2432.78 5423.8 2437.7 5423.8 2443.78Z" stroke="#5B9BD5" stroke-width="3.4375" stroke-linejoin="round" stroke-miterlimit="10" fill="#5B9BD5"/><path d="M5697.8 2442.78C5697.8 2448.85 5692.87 2453.78 5686.8 2453.78 5680.72 2453.78 5675.8 2448.85 5675.8 2442.78 5675.8 2436.7 5680.72 2431.78 5686.8 2431.78 5692.87 2431.78 5697.8 2436.7 5697.8 2442.78Z" stroke="#5B9BD5" stroke-width="3.4375" stroke-linejoin="round" stroke-miterlimit="10" fill="#5B9BD5"/><path d="M5972.8 2445.78C5972.8 2451.85 5967.87 2456.78 5961.8 2456.78 5955.72 2456.78 5950.8 2451.85 5950.8 2445.78 5950.8 2439.7 5955.72 2434.78 5961.8 2434.78 5967.87 2434.78 5972.8 2439.7 5972.8 2445.78Z" stroke="#5B9BD5" stroke-width="3.4375" stroke-linejoin="round" stroke-miterlimit="10" fill="#5B9BD5"/><path d="M6247.8 2450.78C6247.8 2456.85 6242.87 2461.78 6236.8 2461.78 6230.72 2461.78 6225.8 2456.85 6225.8 2450.78 6225.8 2444.7 6230.72 2439.78 6236.8 2439.78 6242.87 2439.78 6247.8 2444.7 6247.8 2450.78Z" stroke="#5B9BD5" stroke-width="3.4375" stroke-linejoin="round" stroke-miterlimit="10" fill="#5B9BD5"/></g><g clip-path="url(#clip9)"><text fill="#595959" font-family="Calibri,Calibri_MSFontService,sans-serif" font-weight="400" font-size="41" transform="matrix(1 0 0 1 2053.99 2482)">0</text></g><g clip-path="url(#clip10)"><text fill="#595959" font-family="Calibri,Calibri_MSFontService,sans-serif" font-weight="400" font-size="41" transform="matrix(1 0 0 1 2053.99 2224)">5</text></g><g clip-path="url(#clip11)"><text fill="#595959" font-family="Calibri,Calibri_MSFontService,sans-serif" font-weight="400" font-size="41" transform="matrix(1 0 0 1 2033.09 1965)">10</text></g><g clip-path="url(#clip12)"><text fill="#595959" font-family="Calibri,Calibri_MSFontService,sans-serif" font-weight="400" font-size="41" transform="matrix(1 0 0 1 2033.09 1707)">15</text></g><g clip-path="url(#clip13)"><text fill="#595959" font-family="Calibri,Calibri_MSFontService,sans-serif" font-weight="400" font-size="41" transform="matrix(1 0 0 1 2033.09 1449)">20</text></g><g clip-path="url(#clip14)"><text fill="#595959" font-family="Calibri,Calibri_MSFontService,sans-serif" font-weight="400" font-size="41" transform="matrix(1 0 0 1 2033.09 1191)">25</text></g><g clip-path="url(#clip15)"><text fill="#595959" font-family="Calibri,Calibri_MSFontService,sans-serif" font-weight="400" font-size="41" transform="matrix(1 0 0 1 2033.09 933)">30</text></g><g clip-path="url(#clip16)"><text fill="#595959" font-family="Calibri,Calibri_MSFontService,sans-serif" font-weight="400" font-size="41" transform="matrix(1 0 0 1 2033.09 675)">35</text></g><g clip-path="url(#clip17)"><text fill="#595959" font-family="Calibri,Calibri_MSFontService,sans-serif" font-weight="400" font-size="41" transform="matrix(1 0 0 1 2033.09 417)">40</text></g><g clip-path="url(#clip18)"><text fill="#595959" font-family="Calibri,Calibri_MSFontService,sans-serif" font-weight="400" font-size="41" transform="matrix(1 0 0 1 2102.71 2535)">0</text></g><g clip-path="url(#clip19)"><text fill="#595959" font-family="Calibri,Calibri_MSFontService,sans-serif" font-weight="400" font-size="41" transform="matrix(1 0 0 1 2789.97 2535)">5</text></g><g clip-path="url(#clip20)"><text fill="#595959" font-family="Calibri,Calibri_MSFontService,sans-serif" font-weight="400" font-size="41" transform="matrix(1 0 0 1 3466.78 2535)">10</text></g><g clip-path="url(#clip21)"><text fill="#595959" font-family="Calibri,Calibri_MSFontService,sans-serif" font-weight="400" font-size="41" transform="matrix(1 0 0 1 4154.04 2535)">15</text></g><g clip-path="url(#clip22)"><text fill="#595959" font-family="Calibri,Calibri_MSFontService,sans-serif" font-weight="400" font-size="41" transform="matrix(1 0 0 1 4841.31 2535)">20</text></g><g clip-path="url(#clip23)"><text fill="#595959" font-family="Calibri,Calibri_MSFontService,sans-serif" font-weight="400" font-size="41" transform="matrix(1 0 0 1 5528.57 2535)">25</text></g><g clip-path="url(#clip24)"><text fill="#595959" font-family="Calibri,Calibri_MSFontService,sans-serif" font-weight="400" font-size="41" transform="matrix(1 0 0 1 6215.83 2535)">30</text></g><g clip-path="url(#clip25)"><text fill="#595959" font-family="Calibri,Calibri_MSFontService,sans-serif" font-weight="400" font-size="41" transform="matrix(1 0 0 1 6903.1 2535)">35</text></g><g clip-path="url(#clip26)"><text fill="#595959" font-family="Calibri,Calibri_MSFontService,sans-serif" font-weight="400" font-size="64" transform="matrix(1 0 0 1 4381.7 331)">Aufladen</text></g><g clip-path="url(#clip27)"><path d="M4104.5 2615.5 4192.5 2615.5" stroke="#FFC000" stroke-width="6.875" stroke-linecap="round" stroke-linejoin="round" stroke-miterlimit="10" fill="none" fill-rule="evenodd"/></g><g clip-path="url(#clip28)"><path d="M4159 2615C4159 2621.07 4154.08 2626 4148 2626 4141.92 2626 4137 2621.07 4137 2615 4137 2608.92 4141.92 2604 4148 2604 4154.08 2604 4159 2608.92 4159 2615Z" stroke="#FFC000" stroke-width="3.4375" stroke-linejoin="round" stroke-miterlimit="10" fill="#FFC000"/></g><g clip-path="url(#clip29)"><text fill="#595959" font-family="Calibri,Calibri_MSFontService,sans-serif" font-weight="400" font-size="41" transform="matrix(1 0 0 1 4201.46 2627)">Durchschnitt</text></g><g clip-path="url(#clip30)"><path d="M4479.5 2615.5 4567.5 2615.5" stroke="#5B9BD5" stroke-width="6.875" stroke-linecap="round" stroke-linejoin="round" stroke-miterlimit="10" fill="none" fill-rule="evenodd"/></g><g clip-path="url(#clip31)"><path d="M4534 2615C4534 2621.07 4529.08 2626 4523 2626 4516.92 2626 4512 2621.07 4512 2615 4512 2608.92 4516.92 2604 4523 2604 4529.08 2604 4534 2608.92 4534 2615Z" stroke="#5B9BD5" stroke-width="3.4375" stroke-linejoin="round" stroke-miterlimit="10" fill="#5B9BD5"/></g><g clip-path="url(#clip32)"><text fill="#595959" font-family="Calibri,Calibri_MSFontService,sans-serif" font-weight="400" font-size="41" transform="matrix(1 0 0 1 4577.24 2627)">Theoretische Werte</text></g><rect x="2003.5" y="235.5" width="4992" height="2446" stroke="#D9D9D9" stroke-width="3.4375" stroke-linejoin="round" stroke-miterlimit="10" fill="none"/></g></svg>