<svg width="1653" height="993" xmlns="http://www.w3.org/2000/svg" xmlns:xlink="http://www.w3.org/1999/xlink" overflow="hidden"><defs><clipPath id="clip0"><rect x="1595" y="205" width="1653" height="993"/></clipPath><clipPath id="clip1"><rect x="1596" y="206" width="1650" height="990"/></clipPath><clipPath id="clip2"><rect x="1596" y="206" width="1650" height="990"/></clipPath><clipPath id="clip3"><rect x="1596" y="206" width="1650" height="990"/></clipPath><clipPath id="clip4"><rect x="1596" y="206" width="1650" height="990"/></clipPath><clipPath id="clip5"><rect x="1739" y="376" width="1439" height="668"/></clipPath><clipPath id="clip6"><rect x="1596" y="206" width="1650" height="990"/></clipPath><clipPath id="clip7"><rect x="1739" y="376" width="1439" height="668"/></clipPath><clipPath id="clip8"><rect x="1596" y="206" width="1650" height="990"/></clipPath><clipPath id="clip9"><rect x="1739" y="376" width="1439" height="668"/></clipPath><clipPath id="clip10"><rect x="1596" y="206" width="1650" height="990"/></clipPath><clipPath id="clip11"><rect x="1739" y="376" width="1439" height="668"/></clipPath><clipPath id="clip12"><rect x="1596" y="206" width="1650" height="990"/></clipPath><clipPath id="clip13"><rect x="1596" y="206" width="1650" height="990"/></clipPath><clipPath id="clip14"><rect x="1596" y="206" width="1650" height="990"/></clipPath><clipPath id="clip15"><rect x="1596" y="206" width="1650" height="990"/></clipPath><clipPath id="clip16"><rect x="1596" y="206" width="1650" height="990"/></clipPath><clipPath id="clip17"><rect x="1596" y="206" width="1650" height="990"/></clipPath><clipPath id="clip18"><rect x="1596" y="206" width="1650" height="990"/></clipPath><clipPath id="clip19"><rect x="1596" y="206" width="1650" height="990"/></clipPath><clipPath id="clip20"><rect x="1596" y="206" width="1650" height="990"/></clipPath><clipPath id="clip21"><rect x="1596" y="206" width="1650" height="990"/></clipPath><clipPath id="clip22"><rect x="1596" y="206" width="1650" height="990"/></clipPath><clipPath id="clip23"><rect x="1596" y="206" width="1650" height="990"/></clipPath><clipPath id="clip24"><rect x="1596" y="206" width="1650" height="990"/></clipPath><clipPath id="clip25"><rect x="1596" y="206" width="1650" height="990"/></clipPath><clipPath id="clip26"><rect x="1596" y="206" width="1650" height="990"/></clipPath><clipPath id="clip27"><rect x="1596" y="206" width="1650" height="990"/></clipPath><clipPath id="clip28"><rect x="1596" y="206" width="1650" height="990"/></clipPath><clipPath id="clip29"><rect x="1596" y="206" width="1650" height="990"/></clipPath><clipPath id="clip30"><rect x="1596" y="206" width="1650" height="990"/></clipPath><clipPath id="clip31"><rect x="1596" y="206" width="1650" height="990"/></clipPath><clipPath id="clip32"><rect x="1596" y="206" width="1650" height="990"/></clipPath><clipPath id="clip33"><rect x="1596" y="206" width="1650" height="990"/></clipPath><clipPath id="clip34"><rect x="1596" y="206" width="1650" height="990"/></clipPath><clipPath id="clip35"><rect x="1596" y="206" width="1650" height="990"/></clipPath><clipPath id="clip36"><rect x="1596" y="206" width="1650" height="990"/></clipPath><clipPath id="clip37"><rect x="1596" y="206" width="1650" height="990"/></clipPath><clipPath id="clip38"><rect x="1596" y="206" width="1650" height="990"/></clipPath><clipPath id="clip39"><rect x="1596" y="206" width="1650" height="990"/></clipPath><clipPath id="clip40"><rect x="1596" y="206" width="1650" height="990"/></clipPath><clipPath id="clip41"><rect x="1596" y="206" width="1650" height="990"/></clipPath><clipPath id="clip42"><rect x="1596" y="206" width="1650" height="990"/></clipPath><clipPath id="clip43"><rect x="1596" y="206" width="1650" height="990"/></clipPath></defs><g clip-path="url(#clip0)" transform="translate(-1595 -205)"><rect x="1596" y="206" width="1650" height="990" fill="#FFFFFF"/><g clip-path="url(#clip1)"><path d="M1739.5 1040.5 3174.5 1040.5M1739.5 967.532 3174.5 967.532M1739.5 893.53 3174.5 893.53M1739.5 819.527 3174.5 819.527M1739.5 745.525 3174.5 745.525M1739.5 671.522 3174.5 671.522M1739.5 597.52 3174.5 597.52M1739.5 523.517 3174.5 523.517M1739.5 376.5 3174.5 376.5" stroke="#D9D9D9" stroke-width="3.4375" stroke-linejoin="round" stroke-miterlimit="10" fill="none"/></g><g clip-path="url(#clip2)"><path d="M1944.56 376.5 1944.56 1040.5M2149.57 376.5 2149.57 1040.5M2354.58 376.5 2354.58 1040.5M2559.58 376.5 2559.58 1040.5M2764.59 376.5 2764.59 1040.5M2969.6 376.5 2969.6 1040.5M3174.5 376.5 3174.5 1040.5" stroke="#D9D9D9" stroke-width="3.4375" stroke-linejoin="round" stroke-miterlimit="10" fill="none"/></g><g clip-path="url(#clip3)"><path d="M0 0 0.000360892 664" stroke="#BFBFBF" stroke-width="3.4375" stroke-linejoin="round" stroke-miterlimit="10" fill="none" fill-rule="evenodd" transform="matrix(1 0 0 -1 1739.5 1040.5)"/></g><g clip-path="url(#clip4)"><path d="M1739.5 450.5 3174.5 450.501" stroke="#BFBFBF" stroke-width="3.4375" stroke-linejoin="round" stroke-miterlimit="10" fill="none" fill-rule="evenodd"/></g><g clip-path="url(#clip5)"><path d="M1739.5 450.16C1766.83 625.683 1794.17 973.957 1821.5 976.729 1848.83 979.5 1876.17 553.072 1903.5 466.789 1915.95 427.5 1973.05 459.814 1985.5 459.029 2012.83 457.304 2040.17 457.12 2067.5 456.442 2094.83 455.764 2122.17 455.334 2149.5 454.964 2176.83 454.594 2204.17 454.472 2231.5 454.225 2258.83 453.979 2286.17 453.609 2313.5 453.486 2340.83 453.363 2368.17 453.609 2395.5 453.486 2422.83 453.363 2450.17 452.931 2477.5 452.747 2504.83 452.562 2532.17 452.439 2559.5 452.378 2586.83 452.316 2614.17 452.378 2641.5 452.378 2668.83 452.378 2696.17 452.439 2723.5 452.378 2750.83 452.316 2778.17 452.069 2805.5 452.008 2832.83 451.946 2860.17 452.069 2887.5 452.008 2914.83 451.946 2942.17 451.762 2969.5 451.639" stroke="#4472C4" stroke-width="6.875" stroke-linecap="round" stroke-linejoin="round" stroke-miterlimit="10" fill="none"/></g><g clip-path="url(#clip6)"><path d="M1750.65 450.75C1750.65 456.824 1745.72 461.749 1739.65 461.749 1733.57 461.749 1728.65 456.824 1728.65 450.75 1728.65 444.675 1733.57 439.75 1739.65 439.75 1745.72 439.75 1750.65 444.675 1750.65 450.75Z" stroke="#4472C4" stroke-width="3.4375" stroke-linejoin="round" stroke-miterlimit="10" fill="#4472C4"/><path d="M1832.65 976.749C1832.65 982.824 1827.72 987.749 1821.65 987.749 1815.57 987.749 1810.65 982.824 1810.65 976.749 1810.65 970.675 1815.57 965.75 1821.65 965.75 1827.72 965.75 1832.65 970.675 1832.65 976.749Z" stroke="#4472C4" stroke-width="3.4375" stroke-linejoin="round" stroke-miterlimit="10" fill="#4472C4"/><path d="M1914.65 466.749C1914.65 472.824 1909.72 477.749 1903.65 477.749 1897.57 477.749 1892.65 472.824 1892.65 466.749 1892.65 460.674 1897.57 455.75 1903.65 455.75 1909.72 455.75 1914.65 460.674 1914.65 466.749Z" stroke="#4472C4" stroke-width="3.4375" stroke-linejoin="round" stroke-miterlimit="10" fill="#4472C4"/><path d="M1996.65 458.749C1996.65 464.824 1991.72 469.749 1985.65 469.749 1979.57 469.749 1974.65 464.824 1974.65 458.749 1974.65 452.674 1979.57 447.75 1985.65 447.75 1991.72 447.75 1996.65 452.674 1996.65 458.749Z" stroke="#4472C4" stroke-width="3.4375" stroke-linejoin="round" stroke-miterlimit="10" fill="#4472C4"/><path d="M2078.65 456.749C2078.65 462.824 2073.72 467.749 2067.65 467.749 2061.57 467.749 2056.65 462.824 2056.65 456.749 2056.65 450.674 2061.57 445.75 2067.65 445.75 2073.72 445.75 2078.65 450.674 2078.65 456.749Z" stroke="#4472C4" stroke-width="3.4375" stroke-linejoin="round" stroke-miterlimit="10" fill="#4472C4"/><path d="M2160.65 454.749C2160.65 460.824 2155.72 465.749 2149.65 465.749 2143.57 465.749 2138.65 460.824 2138.65 454.749 2138.65 448.674 2143.57 443.75 2149.65 443.75 2155.72 443.75 2160.65 448.674 2160.65 454.749Z" stroke="#4472C4" stroke-width="3.4375" stroke-linejoin="round" stroke-miterlimit="10" fill="#4472C4"/><path d="M2242.65 454.749C2242.65 460.824 2237.72 465.749 2231.65 465.749 2225.57 465.749 2220.65 460.824 2220.65 454.749 2220.65 448.674 2225.57 443.75 2231.65 443.75 2237.72 443.75 2242.65 448.674 2242.65 454.749Z" stroke="#4472C4" stroke-width="3.4375" stroke-linejoin="round" stroke-miterlimit="10" fill="#4472C4"/><path d="M2324.65 453.749C2324.65 459.824 2319.72 464.749 2313.65 464.749 2307.57 464.749 2302.65 459.824 2302.65 453.749 2302.65 447.674 2307.57 442.75 2313.65 442.75 2319.72 442.75 2324.65 447.674 2324.65 453.749Z" stroke="#4472C4" stroke-width="3.4375" stroke-linejoin="round" stroke-miterlimit="10" fill="#4472C4"/><path d="M2406.65 453.749C2406.65 459.824 2401.72 464.749 2395.65 464.749 2389.57 464.749 2384.65 459.824 2384.65 453.749 2384.65 447.674 2389.57 442.75 2395.65 442.75 2401.72 442.75 2406.65 447.674 2406.65 453.749Z" stroke="#4472C4" stroke-width="3.4375" stroke-linejoin="round" stroke-miterlimit="10" fill="#4472C4"/><path d="M2488.65 452.749C2488.65 458.824 2483.72 463.749 2477.65 463.749 2471.57 463.749 2466.65 458.824 2466.65 452.749 2466.65 446.674 2471.57 441.75 2477.65 441.75 2483.72 441.75 2488.65 446.674 2488.65 452.749Z" stroke="#4472C4" stroke-width="3.4375" stroke-linejoin="round" stroke-miterlimit="10" fill="#4472C4"/><path d="M2570.65 452.749C2570.65 458.824 2565.72 463.749 2559.65 463.749 2553.57 463.749 2548.65 458.824 2548.65 452.749 2548.65 446.674 2553.57 441.75 2559.65 441.75 2565.72 441.75 2570.65 446.674 2570.65 452.749Z" stroke="#4472C4" stroke-width="3.4375" stroke-linejoin="round" stroke-miterlimit="10" fill="#4472C4"/><path d="M2652.65 452.749C2652.65 458.824 2647.72 463.749 2641.65 463.749 2635.57 463.749 2630.65 458.824 2630.65 452.749 2630.65 446.674 2635.57 441.75 2641.65 441.75 2647.72 441.75 2652.65 446.674 2652.65 452.749Z" stroke="#4472C4" stroke-width="3.4375" stroke-linejoin="round" stroke-miterlimit="10" fill="#4472C4"/><path d="M2734.65 452.749C2734.65 458.824 2729.72 463.749 2723.65 463.749 2717.57 463.749 2712.65 458.824 2712.65 452.749 2712.65 446.674 2717.57 441.75 2723.65 441.75 2729.72 441.75 2734.65 446.674 2734.65 452.749Z" stroke="#4472C4" stroke-width="3.4375" stroke-linejoin="round" stroke-miterlimit="10" fill="#4472C4"/><path d="M2816.65 451.75C2816.65 457.824 2811.72 462.749 2805.65 462.749 2799.57 462.749 2794.65 457.824 2794.65 451.75 2794.65 445.675 2799.57 440.75 2805.65 440.75 2811.72 440.75 2816.65 445.675 2816.65 451.75Z" stroke="#4472C4" stroke-width="3.4375" stroke-linejoin="round" stroke-miterlimit="10" fill="#4472C4"/><path d="M2898.65 451.75C2898.65 457.824 2893.72 462.749 2887.65 462.749 2881.57 462.749 2876.65 457.824 2876.65 451.75 2876.65 445.675 2881.57 440.75 2887.65 440.75 2893.72 440.75 2898.65 445.675 2898.65 451.75Z" stroke="#4472C4" stroke-width="3.4375" stroke-linejoin="round" stroke-miterlimit="10" fill="#4472C4"/><path d="M2980.65 451.75C2980.65 457.824 2975.72 462.749 2969.65 462.749 2963.57 462.749 2958.65 457.824 2958.65 451.75 2958.65 445.675 2963.57 440.75 2969.65 440.75 2975.72 440.75 2980.65 445.675 2980.65 451.75Z" stroke="#4472C4" stroke-width="3.4375" stroke-linejoin="round" stroke-miterlimit="10" fill="#4472C4"/></g><g clip-path="url(#clip7)"><path d="M1739.5 449.98C1766.83 618.491 1794.17 950.53 1821.5 955.515 1848.83 960.5 1876.17 562.916 1903.5 479.891 1916.8 439.5 1972.2 459.401 1985.5 457.365 2012.83 453.18 2040.17 455.396 2067.5 454.781 2094.83 454.165 2122.17 453.919 2149.5 453.673 2176.83 453.426 2204.17 453.488 2231.5 453.304 2258.83 453.119 2286.17 452.749 2313.5 452.565 2340.83 452.38 2368.17 452.319 2395.5 452.196 2422.83 452.073 2450.17 451.888 2477.5 451.827 2504.83 451.765 2532.17 451.888 2559.5 451.827 2586.83 451.765 2614.17 451.519 2641.5 451.457 2668.83 451.396 2696.17 451.519 2723.5 451.457 2750.83 451.396 2778.17 451.149 2805.5 451.088 2832.83 451.026 2860.17 451.088 2887.5 451.088 2914.83 451.088 2942.17 451.088 2969.5 451.088" stroke="#ED7D31" stroke-width="6.875" stroke-linecap="round" stroke-linejoin="round" stroke-miterlimit="10" fill="none"/></g><g clip-path="url(#clip8)"><path d="M1750.65 450.75C1750.65 456.824 1745.72 461.749 1739.65 461.749 1733.57 461.749 1728.65 456.824 1728.65 450.75 1728.65 444.675 1733.57 439.75 1739.65 439.75 1745.72 439.75 1750.65 444.675 1750.65 450.75Z" stroke="#ED7D31" stroke-width="3.4375" stroke-linejoin="round" stroke-miterlimit="10" fill="#ED7D31"/><path d="M1832.65 955.75C1832.65 961.824 1827.72 966.749 1821.65 966.749 1815.57 966.749 1810.65 961.824 1810.65 955.75 1810.65 949.675 1815.57 944.75 1821.65 944.75 1827.72 944.75 1832.65 949.675 1832.65 955.75Z" stroke="#ED7D31" stroke-width="3.4375" stroke-linejoin="round" stroke-miterlimit="10" fill="#ED7D31"/><path d="M1914.65 480.749C1914.65 486.824 1909.72 491.749 1903.65 491.749 1897.57 491.749 1892.65 486.824 1892.65 480.749 1892.65 474.674 1897.57 469.75 1903.65 469.75 1909.72 469.75 1914.65 474.674 1914.65 480.749Z" stroke="#ED7D31" stroke-width="3.4375" stroke-linejoin="round" stroke-miterlimit="10" fill="#ED7D31"/><path d="M1996.65 457.749C1996.65 463.824 1991.72 468.749 1985.65 468.749 1979.57 468.749 1974.65 463.824 1974.65 457.749 1974.65 451.674 1979.57 446.75 1985.65 446.75 1991.72 446.75 1996.65 451.674 1996.65 457.749Z" stroke="#ED7D31" stroke-width="3.4375" stroke-linejoin="round" stroke-miterlimit="10" fill="#ED7D31"/><path d="M2078.65 454.749C2078.65 460.824 2073.72 465.749 2067.65 465.749 2061.57 465.749 2056.65 460.824 2056.65 454.749 2056.65 448.674 2061.57 443.75 2067.65 443.75 2073.72 443.75 2078.65 448.674 2078.65 454.749Z" stroke="#ED7D31" stroke-width="3.4375" stroke-linejoin="round" stroke-miterlimit="10" fill="#ED7D31"/><path d="M2160.65 453.749C2160.65 459.824 2155.72 464.749 2149.65 464.749 2143.57 464.749 2138.65 459.824 2138.65 453.749 2138.65 447.674 2143.57 442.75 2149.65 442.75 2155.72 442.75 2160.65 447.674 2160.65 453.749Z" stroke="#ED7D31" stroke-width="3.4375" stroke-linejoin="round" stroke-miterlimit="10" fill="#ED7D31"/><path d="M2242.65 453.749C2242.65 459.824 2237.72 464.749 2231.65 464.749 2225.57 464.749 2220.65 459.824 2220.65 453.749 2220.65 447.674 2225.57 442.75 2231.65 442.75 2237.72 442.75 2242.65 447.674 2242.65 453.749Z" stroke="#ED7D31" stroke-width="3.4375" stroke-linejoin="round" stroke-miterlimit="10" fill="#ED7D31"/><path d="M2324.65 452.749C2324.65 458.824 2319.72 463.749 2313.65 463.749 2307.57 463.749 2302.65 458.824 2302.65 452.749 2302.65 446.674 2307.57 441.75 2313.65 441.75 2319.72 441.75 2324.65 446.674 2324.65 452.749Z" stroke="#ED7D31" stroke-width="3.4375" stroke-linejoin="round" stroke-miterlimit="10" fill="#ED7D31"/><path d="M2406.65 452.749C2406.65 458.824 2401.72 463.749 2395.65 463.749 2389.57 463.749 2384.65 458.824 2384.65 452.749 2384.65 446.674 2389.57 441.75 2395.65 441.75 2401.72 441.75 2406.65 446.674 2406.65 452.749Z" stroke="#ED7D31" stroke-width="3.4375" stroke-linejoin="round" stroke-miterlimit="10" fill="#ED7D31"/><path d="M2488.65 451.75C2488.65 457.824 2483.72 462.749 2477.65 462.749 2471.57 462.749 2466.65 457.824 2466.65 451.75 2466.65 445.675 2471.57 440.75 2477.65 440.75 2483.72 440.75 2488.65 445.675 2488.65 451.75Z" stroke="#ED7D31" stroke-width="3.4375" stroke-linejoin="round" stroke-miterlimit="10" fill="#ED7D31"/><path d="M2570.65 451.75C2570.65 457.824 2565.72 462.749 2559.65 462.749 2553.57 462.749 2548.65 457.824 2548.65 451.75 2548.65 445.675 2553.57 440.75 2559.65 440.75 2565.72 440.75 2570.65 445.675 2570.65 451.75Z" stroke="#ED7D31" stroke-width="3.4375" stroke-linejoin="round" stroke-miterlimit="10" fill="#ED7D31"/><path d="M2652.65 451.75C2652.65 457.824 2647.72 462.749 2641.65 462.749 2635.57 462.749 2630.65 457.824 2630.65 451.75 2630.65 445.675 2635.57 440.75 2641.65 440.75 2647.72 440.75 2652.65 445.675 2652.65 451.75Z" stroke="#ED7D31" stroke-width="3.4375" stroke-linejoin="round" stroke-miterlimit="10" fill="#ED7D31"/><path d="M2734.65 451.75C2734.65 457.824 2729.72 462.749 2723.65 462.749 2717.57 462.749 2712.65 457.824 2712.65 451.75 2712.65 445.675 2717.57 440.75 2723.65 440.75 2729.72 440.75 2734.65 445.675 2734.65 451.75Z" stroke="#ED7D31" stroke-width="3.4375" stroke-linejoin="round" stroke-miterlimit="10" fill="#ED7D31"/><path d="M2816.65 451.75C2816.65 457.824 2811.72 462.749 2805.65 462.749 2799.57 462.749 2794.65 457.824 2794.65 451.75 2794.65 445.675 2799.57 440.75 2805.65 440.75 2811.72 440.75 2816.65 445.675 2816.65 451.75Z" stroke="#ED7D31" stroke-width="3.4375" stroke-linejoin="round" stroke-miterlimit="10" fill="#ED7D31"/><path d="M2898.65 451.75C2898.65 457.824 2893.72 462.749 2887.65 462.749 2881.57 462.749 2876.65 457.824 2876.65 451.75 2876.65 445.675 2881.57 440.75 2887.65 440.75 2893.72 440.75 2898.65 445.675 2898.65 451.75Z" stroke="#ED7D31" stroke-width="3.4375" stroke-linejoin="round" stroke-miterlimit="10" fill="#ED7D31"/><path d="M2980.65 451.75C2980.65 457.824 2975.72 462.749 2969.65 462.749 2963.57 462.749 2958.65 457.824 2958.65 451.75 2958.65 445.675 2963.57 440.75 2969.65 440.75 2975.72 440.75 2980.65 445.675 2980.65 451.75Z" stroke="#ED7D31" stroke-width="3.4375" stroke-linejoin="round" stroke-miterlimit="10" fill="#ED7D31"/></g><g clip-path="url(#clip9)"><path d="M1739.5 449.689C1766.83 591.66 1794.17 872.703 1821.5 875.601 1848.83 878.5 1876.17 536.956 1903.5 467.081 1918.59 428.5 1970.41 457.541 1985.5 456.35 2012.83 454.191 2040.17 454.623 2067.5 454.129 2094.83 453.636 2122.17 453.574 2149.5 453.389 2176.83 453.204 2204.17 453.204 2231.5 453.019 2258.83 452.834 2286.17 452.464 2313.5 452.279 2340.83 452.094 2368.17 452.032 2395.5 451.909 2422.83 451.786 2450.17 451.539 2477.5 451.539 2504.83 451.539 2532.17 451.97 2559.5 451.909 2586.83 451.847 2614.17 451.292 2641.5 451.169 2668.83 451.046 2696.17 451.231 2723.5 451.169 2750.83 451.107 2778.17 450.799 2805.5 450.799 2832.83 450.799 2860.17 451.169 2887.5 451.169 2914.83 451.169 2942.17 450.922 2969.5 450.799" stroke="#A5A5A5" stroke-width="6.875" stroke-linecap="round" stroke-linejoin="round" stroke-miterlimit="10" fill="none"/></g><g clip-path="url(#clip10)"><path d="M1750.65 450.75C1750.65 456.824 1745.72 461.749 1739.65 461.749 1733.57 461.749 1728.65 456.824 1728.65 450.75 1728.65 444.675 1733.57 439.75 1739.65 439.75 1745.72 439.75 1750.65 444.675 1750.65 450.75Z" stroke="#A5A5A5" stroke-width="3.4375" stroke-linejoin="round" stroke-miterlimit="10" fill="#A5A5A5"/><path d="M1832.65 875.749C1832.65 881.824 1827.72 886.749 1821.65 886.749 1815.57 886.749 1810.65 881.824 1810.65 875.749 1810.65 869.674 1815.57 864.75 1821.65 864.75 1827.72 864.75 1832.65 869.674 1832.65 875.749Z" stroke="#A5A5A5" stroke-width="3.4375" stroke-linejoin="round" stroke-miterlimit="10" fill="#A5A5A5"/><path d="M1914.65 467.749C1914.65 473.824 1909.72 478.749 1903.65 478.749 1897.57 478.749 1892.65 473.824 1892.65 467.749 1892.65 461.674 1897.57 456.75 1903.65 456.75 1909.72 456.75 1914.65 461.674 1914.65 467.749Z" stroke="#A5A5A5" stroke-width="3.4375" stroke-linejoin="round" stroke-miterlimit="10" fill="#A5A5A5"/><path d="M1996.65 456.749C1996.65 462.824 1991.72 467.749 1985.65 467.749 1979.57 467.749 1974.65 462.824 1974.65 456.749 1974.65 450.674 1979.57 445.75 1985.65 445.75 1991.72 445.75 1996.65 450.674 1996.65 456.749Z" stroke="#A5A5A5" stroke-width="3.4375" stroke-linejoin="round" stroke-miterlimit="10" fill="#A5A5A5"/><path d="M2078.65 454.749C2078.65 460.824 2073.72 465.749 2067.65 465.749 2061.57 465.749 2056.65 460.824 2056.65 454.749 2056.65 448.674 2061.57 443.75 2067.65 443.75 2073.72 443.75 2078.65 448.674 2078.65 454.749Z" stroke="#A5A5A5" stroke-width="3.4375" stroke-linejoin="round" stroke-miterlimit="10" fill="#A5A5A5"/><path d="M2160.65 453.749C2160.65 459.824 2155.72 464.749 2149.65 464.749 2143.57 464.749 2138.65 459.824 2138.65 453.749 2138.65 447.674 2143.57 442.75 2149.65 442.75 2155.72 442.75 2160.65 447.674 2160.65 453.749Z" stroke="#A5A5A5" stroke-width="3.4375" stroke-linejoin="round" stroke-miterlimit="10" fill="#A5A5A5"/><path d="M2242.65 453.749C2242.65 459.824 2237.72 464.749 2231.65 464.749 2225.57 464.749 2220.65 459.824 2220.65 453.749 2220.65 447.674 2225.57 442.75 2231.65 442.75 2237.72 442.75 2242.65 447.674 2242.65 453.749Z" stroke="#A5A5A5" stroke-width="3.4375" stroke-linejoin="round" stroke-miterlimit="10" fill="#A5A5A5"/><path d="M2324.65 452.749C2324.65 458.824 2319.72 463.749 2313.65 463.749 2307.57 463.749 2302.65 458.824 2302.65 452.749 2302.65 446.674 2307.57 441.75 2313.65 441.75 2319.72 441.75 2324.65 446.674 2324.65 452.749Z" stroke="#A5A5A5" stroke-width="3.4375" stroke-linejoin="round" stroke-miterlimit="10" fill="#A5A5A5"/><path d="M2406.65 452.749C2406.65 458.824 2401.72 463.749 2395.65 463.749 2389.57 463.749 2384.65 458.824 2384.65 452.749 2384.65 446.674 2389.57 441.75 2395.65 441.75 2401.72 441.75 2406.65 446.674 2406.65 452.749Z" stroke="#A5A5A5" stroke-width="3.4375" stroke-linejoin="round" stroke-miterlimit="10" fill="#A5A5A5"/><path d="M2488.65 451.75C2488.65 457.824 2483.72 462.749 2477.65 462.749 2471.57 462.749 2466.65 457.824 2466.65 451.75 2466.65 445.675 2471.57 440.75 2477.65 440.75 2483.72 440.75 2488.65 445.675 2488.65 451.75Z" stroke="#A5A5A5" stroke-width="3.4375" stroke-linejoin="round" stroke-miterlimit="10" fill="#A5A5A5"/><path d="M2570.65 452.749C2570.65 458.824 2565.72 463.749 2559.65 463.749 2553.57 463.749 2548.65 458.824 2548.65 452.749 2548.65 446.674 2553.57 441.75 2559.65 441.75 2565.72 441.75 2570.65 446.674 2570.65 452.749Z" stroke="#A5A5A5" stroke-width="3.4375" stroke-linejoin="round" stroke-miterlimit="10" fill="#A5A5A5"/><path d="M2652.65 451.75C2652.65 457.824 2647.72 462.749 2641.65 462.749 2635.57 462.749 2630.65 457.824 2630.65 451.75 2630.65 445.675 2635.57 440.75 2641.65 440.75 2647.72 440.75 2652.65 445.675 2652.65 451.75Z" stroke="#A5A5A5" stroke-width="3.4375" stroke-linejoin="round" stroke-miterlimit="10" fill="#A5A5A5"/><path d="M2734.65 451.75C2734.65 457.824 2729.72 462.749 2723.65 462.749 2717.57 462.749 2712.65 457.824 2712.65 451.75 2712.65 445.675 2717.57 440.75 2723.65 440.75 2729.72 440.75 2734.65 445.675 2734.65 451.75Z" stroke="#A5A5A5" stroke-width="3.4375" stroke-linejoin="round" stroke-miterlimit="10" fill="#A5A5A5"/><path d="M2816.65 451.75C2816.65 457.824 2811.72 462.749 2805.65 462.749 2799.57 462.749 2794.65 457.824 2794.65 451.75 2794.65 445.675 2799.57 440.75 2805.65 440.75 2811.72 440.75 2816.65 445.675 2816.65 451.75Z" stroke="#A5A5A5" stroke-width="3.4375" stroke-linejoin="round" stroke-miterlimit="10" fill="#A5A5A5"/><path d="M2898.65 451.75C2898.65 457.824 2893.72 462.749 2887.65 462.749 2881.57 462.749 2876.65 457.824 2876.65 451.75 2876.65 445.675 2881.57 440.75 2887.65 440.75 2893.72 440.75 2898.65 445.675 2898.65 451.75Z" stroke="#A5A5A5" stroke-width="3.4375" stroke-linejoin="round" stroke-miterlimit="10" fill="#A5A5A5"/><path d="M2980.65 451.75C2980.65 457.824 2975.72 462.749 2969.65 462.749 2963.57 462.749 2958.65 457.824 2958.65 451.75 2958.65 445.675 2963.57 440.75 2969.65 440.75 2975.72 440.75 2980.65 445.675 2980.65 451.75Z" stroke="#A5A5A5" stroke-width="3.4375" stroke-linejoin="round" stroke-miterlimit="10" fill="#A5A5A5"/></g><g clip-path="url(#clip11)"><path d="M1739.5 450.519C1766.83 612.33 1794.17 932.404 1821.5 935.952 1848.83 939.5 1876.17 551.44 1903.5 471.807 1916.99 432.5 1972.01 459.474 1985.5 458.148 2012.83 455.461 2040.17 456.282 2067.5 455.687 2094.83 455.092 2122.17 454.846 2149.5 454.58 2176.83 454.313 2204.17 454.292 2231.5 454.087 2258.83 453.882 2286.17 453.513 2313.5 453.349 2340.83 453.185 2368.17 453.226 2395.5 453.103 2422.83 452.979 2450.17 452.693 2477.5 452.611 2504.83 452.528 2532.17 452.672 2559.5 452.611 2586.83 452.549 2614.17 452.303 2641.5 452.242 2668.83 452.18 2696.17 452.303 2723.5 452.242 2750.83 452.18 2778.17 451.913 2805.5 451.872 2832.83 451.831 2860.17 452.016 2887.5 451.996 2914.83 451.975 2942.17 451.831 2969.5 451.749" stroke="#FFC000" stroke-width="6.875" stroke-linecap="round" stroke-linejoin="round" stroke-miterlimit="10" fill="none"/></g><g clip-path="url(#clip12)"><path d="M1750.65 450.75C1750.65 456.824 1745.72 461.749 1739.65 461.749 1733.57 461.749 1728.65 456.824 1728.65 450.75 1728.65 444.675 1733.57 439.75 1739.65 439.75 1745.72 439.75 1750.65 444.675 1750.65 450.75Z" stroke="#FFC000" stroke-width="3.4375" stroke-linejoin="round" stroke-miterlimit="10" fill="#FFC000"/><path d="M1832.65 935.75C1832.65 941.825 1827.72 946.749 1821.65 946.749 1815.57 946.749 1810.65 941.825 1810.65 935.75 1810.65 929.675 1815.57 924.75 1821.65 924.75 1827.72 924.75 1832.65 929.675 1832.65 935.75Z" stroke="#FFC000" stroke-width="3.4375" stroke-linejoin="round" stroke-miterlimit="10" fill="#FFC000"/><path d="M1914.65 471.75C1914.65 477.824 1909.72 482.749 1903.65 482.749 1897.57 482.749 1892.65 477.824 1892.65 471.75 1892.65 465.675 1897.57 460.75 1903.65 460.75 1909.72 460.75 1914.65 465.675 1914.65 471.75Z" stroke="#FFC000" stroke-width="3.4375" stroke-linejoin="round" stroke-miterlimit="10" fill="#FFC000"/><path d="M1996.65 457.749C1996.65 463.824 1991.72 468.749 1985.65 468.749 1979.57 468.749 1974.65 463.824 1974.65 457.749 1974.65 451.674 1979.57 446.75 1985.65 446.75 1991.72 446.75 1996.65 451.674 1996.65 457.749Z" stroke="#FFC000" stroke-width="3.4375" stroke-linejoin="round" stroke-miterlimit="10" fill="#FFC000"/><path d="M2078.65 455.749C2078.65 461.824 2073.72 466.749 2067.65 466.749 2061.57 466.749 2056.65 461.824 2056.65 455.749 2056.65 449.674 2061.57 444.75 2067.65 444.75 2073.72 444.75 2078.65 449.674 2078.65 455.749Z" stroke="#FFC000" stroke-width="3.4375" stroke-linejoin="round" stroke-miterlimit="10" fill="#FFC000"/><path d="M2160.65 454.749C2160.65 460.824 2155.72 465.749 2149.65 465.749 2143.57 465.749 2138.65 460.824 2138.65 454.749 2138.65 448.674 2143.57 443.75 2149.65 443.75 2155.72 443.75 2160.65 448.674 2160.65 454.749Z" stroke="#FFC000" stroke-width="3.4375" stroke-linejoin="round" stroke-miterlimit="10" fill="#FFC000"/><path d="M2242.65 453.749C2242.65 459.824 2237.72 464.749 2231.65 464.749 2225.57 464.749 2220.65 459.824 2220.65 453.749 2220.65 447.674 2225.57 442.75 2231.65 442.75 2237.72 442.75 2242.65 447.674 2242.65 453.749Z" stroke="#FFC000" stroke-width="3.4375" stroke-linejoin="round" stroke-miterlimit="10" fill="#FFC000"/><path d="M2324.65 452.749C2324.65 458.824 2319.72 463.749 2313.65 463.749 2307.57 463.749 2302.65 458.824 2302.65 452.749 2302.65 446.674 2307.57 441.75 2313.65 441.75 2319.72 441.75 2324.65 446.674 2324.65 452.749Z" stroke="#FFC000" stroke-width="3.4375" stroke-linejoin="round" stroke-miterlimit="10" fill="#FFC000"/><path d="M2406.65 452.749C2406.65 458.824 2401.72 463.749 2395.65 463.749 2389.57 463.749 2384.65 458.824 2384.65 452.749 2384.65 446.674 2389.57 441.75 2395.65 441.75 2401.72 441.75 2406.65 446.674 2406.65 452.749Z" stroke="#FFC000" stroke-width="3.4375" stroke-linejoin="round" stroke-miterlimit="10" fill="#FFC000"/><path d="M2488.65 452.749C2488.65 458.824 2483.72 463.749 2477.65 463.749 2471.57 463.749 2466.65 458.824 2466.65 452.749 2466.65 446.674 2471.57 441.75 2477.65 441.75 2483.72 441.75 2488.65 446.674 2488.65 452.749Z" stroke="#FFC000" stroke-width="3.4375" stroke-linejoin="round" stroke-miterlimit="10" fill="#FFC000"/><path d="M2570.65 452.749C2570.65 458.824 2565.72 463.749 2559.65 463.749 2553.57 463.749 2548.65 458.824 2548.65 452.749 2548.65 446.674 2553.57 441.75 2559.65 441.75 2565.72 441.75 2570.65 446.674 2570.65 452.749Z" stroke="#FFC000" stroke-width="3.4375" stroke-linejoin="round" stroke-miterlimit="10" fill="#FFC000"/><path d="M2652.65 451.75C2652.65 457.824 2647.72 462.749 2641.65 462.749 2635.57 462.749 2630.65 457.824 2630.65 451.75 2630.65 445.675 2635.57 440.75 2641.65 440.75 2647.72 440.75 2652.65 445.675 2652.65 451.75Z" stroke="#FFC000" stroke-width="3.4375" stroke-linejoin="round" stroke-miterlimit="10" fill="#FFC000"/><path d="M2734.65 451.75C2734.65 457.824 2729.72 462.749 2723.65 462.749 2717.57 462.749 2712.65 457.824 2712.65 451.75 2712.65 445.675 2717.57 440.75 2723.65 440.75 2729.72 440.75 2734.65 445.675 2734.65 451.75Z" stroke="#FFC000" stroke-width="3.4375" stroke-linejoin="round" stroke-miterlimit="10" fill="#FFC000"/><path d="M2816.65 451.75C2816.65 457.824 2811.72 462.749 2805.65 462.749 2799.57 462.749 2794.65 457.824 2794.65 451.75 2794.65 445.675 2799.57 440.75 2805.65 440.75 2811.72 440.75 2816.65 445.675 2816.65 451.75Z" stroke="#FFC000" stroke-width="3.4375" stroke-linejoin="round" stroke-miterlimit="10" fill="#FFC000"/><path d="M2898.65 451.75C2898.65 457.824 2893.72 462.749 2887.65 462.749 2881.57 462.749 2876.65 457.824 2876.65 451.75 2876.65 445.675 2881.57 440.75 2887.65 440.75 2893.72 440.75 2898.65 445.675 2898.65 451.75Z" stroke="#FFC000" stroke-width="3.4375" stroke-linejoin="round" stroke-miterlimit="10" fill="#FFC000"/><path d="M2980.65 451.75C2980.65 457.824 2975.72 462.749 2969.65 462.749 2963.57 462.749 2958.65 457.824 2958.65 451.75 2958.65 445.675 2963.57 440.75 2969.65 440.75 2975.72 440.75 2980.65 445.675 2980.65 451.75Z" stroke="#FFC000" stroke-width="3.4375" stroke-linejoin="round" stroke-miterlimit="10" fill="#FFC000"/></g><g clip-path="url(#clip13)"><text fill="#595959" font-family="Calibri,Calibri_MSFontService,sans-serif" font-weight="400" font-size="41" transform="matrix(1 0 0 1 1625.94 1053)">-160</text></g><g clip-path="url(#clip14)"><text fill="#595959" font-family="Calibri,Calibri_MSFontService,sans-serif" font-weight="400" font-size="41" transform="matrix(1 0 0 1 1625.94 979)">-140</text></g><g clip-path="url(#clip15)"><text fill="#595959" font-family="Calibri,Calibri_MSFontService,sans-serif" font-weight="400" font-size="41" transform="matrix(1 0 0 1 1625.94 905)">-120</text></g><g clip-path="url(#clip16)"><text fill="#595959" font-family="Calibri,Calibri_MSFontService,sans-serif" font-weight="400" font-size="41" transform="matrix(1 0 0 1 1625.94 831)">-100</text></g><g clip-path="url(#clip17)"><text fill="#595959" font-family="Calibri,Calibri_MSFontService,sans-serif" font-weight="400" font-size="41" transform="matrix(1 0 0 1 1646.84 757)">-80</text></g><g clip-path="url(#clip18)"><text fill="#595959" font-family="Calibri,Calibri_MSFontService,sans-serif" font-weight="400" font-size="41" transform="matrix(1 0 0 1 1646.84 683)">-60</text></g><g clip-path="url(#clip19)"><text fill="#595959" font-family="Calibri,Calibri_MSFontService,sans-serif" font-weight="400" font-size="41" transform="matrix(1 0 0 1 1646.84 609)">-40</text></g><g clip-path="url(#clip20)"><text fill="#595959" font-family="Calibri,Calibri_MSFontService,sans-serif" font-weight="400" font-size="41" transform="matrix(1 0 0 1 1646.84 536)">-20</text></g><g clip-path="url(#clip21)"><text fill="#595959" font-family="Calibri,Calibri_MSFontService,sans-serif" font-weight="400" font-size="41" transform="matrix(1 0 0 1 1680.36 462)">0</text></g><g clip-path="url(#clip22)"><text fill="#595959" font-family="Calibri,Calibri_MSFontService,sans-serif" font-weight="400" font-size="41" transform="matrix(1 0 0 1 1659.46 388)">20</text></g><g clip-path="url(#clip23)"><text fill="#595959" font-family="Calibri,Calibri_MSFontService,sans-serif" font-weight="400" font-size="41" transform="matrix(1 0 0 1 1729.08 515)">0</text></g><g clip-path="url(#clip24)"><text fill="#595959" font-family="Calibri,Calibri_MSFontService,sans-serif" font-weight="400" font-size="41" transform="matrix(1 0 0 1 1934.12 515)">5</text></g><g clip-path="url(#clip25)"><text fill="#595959" font-family="Calibri,Calibri_MSFontService,sans-serif" font-weight="400" font-size="41" transform="matrix(1 0 0 1 2128.72 515)">10</text></g><g clip-path="url(#clip26)"><text fill="#595959" font-family="Calibri,Calibri_MSFontService,sans-serif" font-weight="400" font-size="41" transform="matrix(1 0 0 1 2333.76 515)">15</text></g><g clip-path="url(#clip27)"><text fill="#595959" font-family="Calibri,Calibri_MSFontService,sans-serif" font-weight="400" font-size="41" transform="matrix(1 0 0 1 2538.8 515)">20</text></g><g clip-path="url(#clip28)"><text fill="#595959" font-family="Calibri,Calibri_MSFontService,sans-serif" font-weight="400" font-size="41" transform="matrix(1 0 0 1 2743.84 515)">25</text></g><g clip-path="url(#clip29)"><text fill="#595959" font-family="Calibri,Calibri_MSFontService,sans-serif" font-weight="400" font-size="41" transform="matrix(1 0 0 1 2948.89 515)">30</text></g><g clip-path="url(#clip30)"><text fill="#595959" font-family="Calibri,Calibri_MSFontService,sans-serif" font-weight="400" font-size="41" transform="matrix(1 0 0 1 3153.93 515)">35</text></g><g clip-path="url(#clip31)"><text fill="#595959" font-family="Calibri,Calibri_MSFontService,sans-serif" font-weight="400" font-size="64" transform="matrix(1 0 0 1 2305.77 302)">Entladen</text></g><g clip-path="url(#clip32)"><path d="M1717.5 1130.5 1805.5 1130.5" stroke="#4472C4" stroke-width="6.875" stroke-linecap="round" stroke-linejoin="round" stroke-miterlimit="10" fill="none" fill-rule="evenodd"/></g><g clip-path="url(#clip33)"><path d="M1772 1130C1772 1136.07 1767.07 1141 1761 1141 1754.92 1141 1750 1136.07 1750 1130 1750 1123.92 1754.92 1119 1761 1119 1767.07 1119 1772 1123.92 1772 1130Z" stroke="#4472C4" stroke-width="3.4375" stroke-linejoin="round" stroke-miterlimit="10" fill="#4472C4"/></g><g clip-path="url(#clip34)"><text fill="#595959" font-family="Calibri,Calibri_MSFontService,sans-serif" font-weight="400" font-size="41" transform="matrix(1 0 0 1 1815.1 1142)">Datenreihen1</text></g><g clip-path="url(#clip35)"><path d="M2082.5 1130.5 2170.5 1130.5" stroke="#ED7D31" stroke-width="6.875" stroke-linecap="round" stroke-linejoin="round" stroke-miterlimit="10" fill="none" fill-rule="evenodd"/></g><g clip-path="url(#clip36)"><path d="M2137 1130C2137 1136.07 2132.07 1141 2126 1141 2119.93 1141 2115 1136.07 2115 1130 2115 1123.92 2119.93 1119 2126 1119 2132.07 1119 2137 1123.92 2137 1130Z" stroke="#ED7D31" stroke-width="3.4375" stroke-linejoin="round" stroke-miterlimit="10" fill="#ED7D31"/></g><g clip-path="url(#clip37)"><text fill="#595959" font-family="Calibri,Calibri_MSFontService,sans-serif" font-weight="400" font-size="41" transform="matrix(1 0 0 1 2180.16 1142)">Datenreihen2</text></g><g clip-path="url(#clip38)"><path d="M2447.5 1130.5 2535.5 1130.5" stroke="#A5A5A5" stroke-width="6.875" stroke-linecap="round" stroke-linejoin="round" stroke-miterlimit="10" fill="none" fill-rule="evenodd"/></g><g clip-path="url(#clip39)"><path d="M2502 1130C2502 1136.07 2497.07 1141 2491 1141 2484.93 1141 2480 1136.07 2480 1130 2480 1123.92 2484.93 1119 2491 1119 2497.07 1119 2502 1123.92 2502 1130Z" stroke="#A5A5A5" stroke-width="3.4375" stroke-linejoin="round" stroke-miterlimit="10" fill="#A5A5A5"/></g><g clip-path="url(#clip40)"><text fill="#595959" font-family="Calibri,Calibri_MSFontService,sans-serif" font-weight="400" font-size="41" transform="matrix(1 0 0 1 2545.23 1142)">Datenreihen3</text></g><g clip-path="url(#clip41)"><path d="M2813.5 1130.5 2901.5 1130.5" stroke="#FFC000" stroke-width="6.875" stroke-linecap="round" stroke-linejoin="round" stroke-miterlimit="10" fill="none" fill-rule="evenodd"/></g><g clip-path="url(#clip42)"><path d="M2868 1130C2868 1136.07 2863.07 1141 2857 1141 2850.93 1141 2846 1136.07 2846 1130 2846 1123.92 2850.93 1119 2857 1119 2863.07 1119 2868 1123.92 2868 1130Z" stroke="#FFC000" stroke-width="3.4375" stroke-linejoin="round" stroke-miterlimit="10" fill="#FFC000"/></g><g clip-path="url(#clip43)"><text fill="#595959" font-family="Calibri,Calibri_MSFontService,sans-serif" font-weight="400" font-size="41" transform="matrix(1 0 0 1 2910.3 1142)">Datenreihen4</text></g><rect x="1596.5" y="206.5" width="1650" height="990" stroke="#D9D9D9" stroke-width="3.4375" stroke-linejoin="round" stroke-miterlimit="10" fill="none"/></g></svg>